<?xml version="1.0" encoding="UTF-8"?>
<svg version="1.1" xmlns="http://www.w3.org/2000/svg" width="310" height="310">
<path d="M0 0 C102.3 0 204.6 0 310 0 C310 102.3 310 204.6 310 310 C207.7 310 105.4 310 0 310 C0 207.7 0 105.4 0 0 Z " fill="#FBFCFC" transform="translate(0,0)"/>
<path d="M0 0 C0.33 0 0.66 0 1 0 C1 1.98 1 3.96 1 6 C1.66 6 2.32 6 3 6 C3.24234375 6.86882812 3.4846875 7.73765625 3.734375 8.6328125 C5.52724565 14.79752928 7.17416567 19.85491246 11 25 C11.165 25.70125 11.33 26.4025 11.5 27.125 C12.22023012 29.82586295 14.02338362 31.08515288 16 33 C16.33 33.99 16.66 34.98 17 36 C18.46235062 37.48629143 18.46235062 37.48629143 20.25 38.875 C23.34859801 41.43087005 26.15848224 44.15848224 29 47 C37.88690305 54.8289384 47.6398129 61.29418653 58 67 C58.79792969 67.45246094 59.59585938 67.90492188 60.41796875 68.37109375 C67.29524387 72.0689251 74.61066359 74.19618676 82.05761719 76.40917969 C84.89356839 77.27179933 87.69526089 78.22891828 90.5 79.1875 C98.46029593 81.83738461 106.04166569 83.35629123 114.36621094 84.30322266 C119.66539295 84.91034071 119.66539295 84.91034071 121.84594727 85.49462891 C132.19553341 87.92278751 143.76964719 87.18635805 154.35766602 87.18530273 C156.7991688 87.18748807 159.24021715 87.20572544 161.68164062 87.22460938 C177.06996968 87.28119053 191.8736814 85.41374952 207 82.625 C208.13566406 82.4290625 209.27132812 82.233125 210.44140625 82.03125 C216.41978612 80.93671464 221.6105153 79.51870481 227.07861328 76.86523438 C229.65157051 75.70658629 232.14850601 75.28562407 234.9375 74.9375 C237.6534419 74.65758029 237.6534419 74.65758029 240 74 C240.99 72.515 240.99 72.515 242 71 C243.83984375 70.375 243.83984375 70.375 245.9375 70 C249.31413609 69.26779038 250.6501221 68.5542151 253 66 C254.69517742 65.28280955 256.39181757 64.56845249 258.1015625 63.88671875 C260.78847537 62.63172035 263.01315767 60.89774746 265.375 59.12109375 C267 58 267 58 269.625 57 C272.84195871 55.64549107 274.55224044 53.49276787 277 51 C278.05720654 50.01371578 279.12128474 49.03475624 280.19140625 48.0625 C280.74376953 47.55976563 281.29613281 47.05703125 281.86523438 46.5390625 C282.99889008 45.51107551 284.13431672 44.4850382 285.27148438 43.4609375 C288.51186476 40.50480101 291.33748895 37.50716973 294 34 C295.625 32.1875 295.625 32.1875 297 31 C297.66 31 298.32 31 299 31 C299.103125 30.319375 299.20625 29.63875 299.3125 28.9375 C300.14725019 25.37084011 301.49472754 22.33777806 303 19 C303.66 19 304.32 19 305 19 C305.12375 18.2575 305.2475 17.515 305.375 16.75 C306 14 306 14 307 12.125 C308.39234567 9.16626544 308.62765961 6.22695003 309 3 C309.33 3 309.66 3 310 3 C310 58.44 310 113.88 310 171 C207.7 171 105.4 171 0 171 C0 114.57 0 58.14 0 0 Z " fill="#FEFEFE" transform="translate(0,139)"/>
<path d="M0 0 C102.3 0 204.6 0 310 0 C310 39.6 310 79.2 310 120 C308 117 308 117 307.3125 113.0625 C305.68353326 105.13744753 300.76624793 98.3258543 296.0625 91.875 C294 89 294 89 294 87 C293.01 86.67 292.02 86.34 291 86 C291 85.01 291 84.02 291 83 C290.360625 82.731875 289.72125 82.46375 289.0625 82.1875 C287 81 287 81 286 78 C285.319375 77.7525 284.63875 77.505 283.9375 77.25 C281.07431732 76.03162439 279.8356065 75.03251924 277.625 72.9375 C273.17390975 68.84730896 268.16977152 65.97185052 262.92822266 63.02124023 C261.25577006 62.06431275 259.62344199 61.03790367 258 60 C258 59.34 258 58.68 258 58 C254.7 57.01 251.4 56.02 248 55 C248 54.34 248 53.68 248 53 C247.3090625 52.88269531 246.618125 52.76539063 245.90625 52.64453125 C242.63875137 51.91988438 239.63851368 50.85004578 236.5 49.6875 C227.14479125 46.30161901 217.83680082 43.13876692 208.0234375 41.39453125 C206 41 206 41 203 40 C203 39.34 203 38.68 203 38 C201.73542969 37.93941406 200.47085938 37.87882812 199.16796875 37.81640625 C197.50780129 37.73199096 195.84764563 37.64734345 194.1875 37.5625 C192.93743164 37.50352539 192.93743164 37.50352539 191.66210938 37.44335938 C190.45844727 37.38051758 190.45844727 37.38051758 189.23046875 37.31640625 C188.49207764 37.27974854 187.75368652 37.24309082 186.99291992 37.20532227 C185 37 185 37 182 36 C180.52714649 35.8989019 179.05023799 35.85170138 177.57397461 35.83886719 C176.67622314 35.82940567 175.77847168 35.81994415 174.85351562 35.81019592 C173.87962891 35.80580002 172.90574219 35.80140411 171.90234375 35.796875 C170.88857666 35.78986069 169.87480957 35.78284637 168.83032227 35.77561951 C165.53267038 35.75802226 162.23519725 35.75175804 158.9375 35.75 C157.82142365 35.74932526 156.70534729 35.74865051 155.55545044 35.74795532 C133.30311066 35.7694319 112.11019385 36.34075834 91 44 C88.62899407 44.74205116 86.25412123 45.47189451 83.875 46.1875 C71.6450933 49.92000399 60.9725435 54.39038331 50 61 C48.86304688 61.6290625 47.72609375 62.258125 46.5546875 62.90625 C42.90320592 64.98451615 39.61653982 67.41320726 36.3125 70 C35.75755859 70.42539063 35.20261719 70.85078125 34.63085938 71.2890625 C32.18355039 73.18638172 29.90107979 75.10079305 27.73046875 77.3125 C26 79 26 79 24 79 C24 79.66 24 80.32 24 81 C22.86324471 82.13675529 21.72208123 83.26935098 20.5625 84.3828125 C17.3947702 87.66141284 14.72729767 91.35492436 12 95 C10.88625 96.4540625 10.88625 96.4540625 9.75 97.9375 C7.37901437 102.08672485 6.20129055 106.3950529 5 111 C4.34 111 3.68 111 3 111 C2.95101563 111.61488281 2.90203125 112.22976562 2.8515625 112.86328125 C2.77679688 113.67152344 2.70203125 114.47976562 2.625 115.3125 C2.52058594 116.51326172 2.52058594 116.51326172 2.4140625 117.73828125 C2 120 2 120 0 123 C0 82.41 0 41.82 0 0 Z " fill="#FDFDFE" transform="translate(0,0)"/>
<path d="M0 0 C1.30565918 -0.00954712 1.30565918 -0.00954712 2.63769531 -0.01928711 C11.82866925 0.1601293 19.89467135 3.20209441 28.375 6.5 C28.375 7.16 28.375 7.82 28.375 8.5 C29.3340625 8.6546875 29.3340625 8.6546875 30.3125 8.8125 C30.993125 9.039375 31.67375 9.26625 32.375 9.5 C32.87 10.985 32.87 10.985 33.375 12.5 C32.80136719 12.2834375 32.22773438 12.066875 31.63671875 11.84375 C20.71793606 8.26490772 7.29637322 7.02732413 -3.3125 12.0625 C-11.74632209 17.08038856 -20.09022327 23.67821355 -22.9375 33.4375 C-23.164375 34.448125 -23.39125 35.45875 -23.625 36.5 C-24.285 36.5 -24.945 36.5 -25.625 36.5 C-26.06208959 47.99788439 -25.96977082 57.68564343 -21.625 68.5 C-21.2846875 69.40621094 -20.944375 70.31242187 -20.59375 71.24609375 C-19.58261559 73.59861211 -18.45147575 74.75654587 -16.625 76.5 C-16.625 77.16 -16.625 77.82 -16.625 78.5 C-16.04878906 78.768125 -15.47257812 79.03625 -14.87890625 79.3125 C-12.57067012 80.52862441 -10.627104 81.90878304 -8.5625 83.5 C-3.20890973 87.62498521 -3.20890973 87.62498521 3.26171875 89.1328125 C4.6684082 89.25849609 4.6684082 89.25849609 6.10351562 89.38671875 C7.07998047 89.46535156 8.05644531 89.54398437 9.0625 89.625 C10.54459961 89.75455078 10.54459961 89.75455078 12.05664062 89.88671875 C14.49554315 90.09879723 16.93484788 90.30291201 19.375 90.5 C19.36976318 89.86908447 19.36452637 89.23816895 19.35913086 88.58813477 C19.33842174 85.74626653 19.32535934 82.90441412 19.3125 80.0625 C19.30412109 79.06927734 19.29574219 78.07605469 19.28710938 77.05273438 C19.28388672 76.10849609 19.28066406 75.16425781 19.27734375 74.19140625 C19.27210693 73.31685791 19.26687012 72.44230957 19.26147461 71.54125977 C19.375 69.5 19.375 69.5 20.375 68.5 C21.98842578 68.40048695 23.60616575 68.36919681 25.22265625 68.3671875 C26.72022461 68.36525391 26.72022461 68.36525391 28.24804688 68.36328125 C29.82682617 68.36908203 29.82682617 68.36908203 31.4375 68.375 C32.97567383 68.36919922 32.97567383 68.36919922 34.54492188 68.36328125 C40.25018541 68.37058165 45.73301605 68.64659066 51.375 69.5 C51.375 70.16 51.375 70.82 51.375 71.5 C52.695 71.5 54.015 71.5 55.375 71.5 C55.375 72.16 55.375 72.82 55.375 73.5 C56.5196875 73.685625 56.5196875 73.685625 57.6875 73.875 C60.375 74.5 60.375 74.5 63.375 76.5 C64.0625 79.625 64.0625 79.625 64.375 82.5 C55.77136076 83.18829114 55.77136076 83.18829114 51.8125 80.625 C51.008125 79.92375 50.20375 79.2225 49.375 78.5 C49.375 77.84 49.375 77.18 49.375 76.5 C42.115 76.5 34.855 76.5 27.375 76.5 C27.375 80.79 27.375 85.08 27.375 89.5 C28.365 89.5 29.355 89.5 30.375 89.5 C29.88 90.985 29.88 90.985 29.375 92.5 C29.22722064 94.19867188 29.12752934 95.90177489 29.05859375 97.60546875 C29.01669922 98.58837891 28.97480469 99.57128906 28.93164062 100.58398438 C28.89232422 101.60814453 28.85300781 102.63230469 28.8125 103.6875 C28.76931641 104.72326172 28.72613281 105.75902344 28.68164062 106.82617188 C28.57555634 109.3839819 28.47349854 111.94188845 28.375 114.5 C42.10889103 114.7313766 42.10889103 114.7313766 53.8046875 108.96875 C55.08248808 107.17577512 55.08248808 107.17577512 56.375 104.5 C53.075 104.5 49.775 104.5 46.375 104.5 C46.375 102.85 46.375 101.2 46.375 99.5 C47.035 99.5 47.695 99.5 48.375 99.5 C48.601875 98.96375 48.82875 98.4275 49.0625 97.875 C50.80882056 94.71499137 53.0152849 92.2323017 55.375 89.5 C52.735 89.5 50.095 89.5 47.375 89.5 C47.375 88.18 47.375 86.86 47.375 85.5 C56.285 85.5 65.195 85.5 74.375 85.5 C74.375 86.82 74.375 88.14 74.375 89.5 C71.735 89.5 69.095 89.5 66.375 89.5 C66.375 90.49 66.375 91.48 66.375 92.5 C68.685 92.5 70.995 92.5 73.375 92.5 C73.375 93.82 73.375 95.14 73.375 96.5 C71.395 96.5 69.415 96.5 67.375 96.5 C67.375 97.49 67.375 98.48 67.375 99.5 C69.685 99.5 71.995 99.5 74.375 99.5 C74.705 101.15 75.035 102.8 75.375 104.5 C72.075 104.5 68.775 104.5 65.375 104.5 C65.375 106.15 65.375 107.8 65.375 109.5 C60.42324237 115.47123714 52.9457658 120.92970937 45.02832031 121.74023438 C42.48973309 121.79392952 39.97577811 121.76218764 37.4375 121.6875 C32.9515625 121.5946875 32.9515625 121.5946875 28.375 121.5 C28.375 132.72 28.375 143.94 28.375 155.5 C25.735 155.5 23.095 155.5 20.375 155.5 C20.375 136.03 20.375 116.56 20.375 96.5 C16.745 97.49 13.115 98.48 9.375 99.5 C6.41900236 99.76518185 3.74572968 99.93416576 0.8125 99.875 C0.08579102 99.86774902 -0.64091797 99.86049805 -1.38964844 99.85302734 C-7.16293297 99.70515925 -12.26041159 98.69071837 -17.625 96.5 C-18.65625 96.108125 -19.6875 95.71625 -20.75 95.3125 C-21.678125 94.9103125 -21.678125 94.9103125 -22.625 94.5 C-22.625 93.84 -22.625 93.18 -22.625 92.5 C-23.3675 92.21125 -24.11 91.9225 -24.875 91.625 C-25.7825 91.25375 -26.69 90.8825 -27.625 90.5 C-28.6459375 90.12875 -28.6459375 90.12875 -29.6875 89.75 C-32.5306249 87.91572587 -33.83353237 85.33167463 -35.625 82.5 C-36.140625 81.984375 -36.65625 81.46875 -37.1875 80.9375 C-39.12892308 78.99607692 -40.35230786 76.9241755 -41.625 74.5 C-41.625 73.51 -41.625 72.52 -41.625 71.5 C-42.285 71.5 -42.945 71.5 -43.625 71.5 C-48.80386018 57.78989247 -48.99601975 45.4716524 -44.625 31.5 C-43.965 31.5 -43.305 31.5 -42.625 31.5 C-42.4084375 29.581875 -42.4084375 29.581875 -42.1875 27.625 C-40.04784897 18.04177426 -30.58776973 10.60135166 -22.625 5.5 C-15.29786039 0.98217057 -8.43959159 0.05265475 0 0 Z " fill="#0C2658" transform="translate(104.625,57.5)"/>
<path d="M0 0 C1.1138205 0.00077545 2.22764099 0.0015509 3.37521362 0.00234985 C6.57186832 0.00879276 9.76825987 0.02505125 12.96484375 0.046875 C13.93877075 0.05126083 14.91269775 0.05564667 15.9161377 0.06016541 C17.26270447 0.07437279 17.26270447 0.07437279 18.63647461 0.08886719 C19.81456947 0.09910919 19.81456947 0.09910919 21.01646423 0.10955811 C23.0625 0.25 23.0625 0.25 26.0625 1.25 C27.46835625 1.45959538 28.87954993 1.63479255 30.29296875 1.78515625 C31.09541016 1.87216797 31.89785156 1.95917969 32.72460938 2.04882812 C33.55798828 2.13583984 34.39136719 2.22285156 35.25 2.3125 C36.09498047 2.40337891 36.93996094 2.49425781 37.81054688 2.58789062 C39.89421485 2.8115612 41.97831795 3.03117151 44.0625 3.25 C44.0625 3.91 44.0625 4.57 44.0625 5.25 C44.85011719 5.34796875 45.63773438 5.4459375 46.44921875 5.546875 C57.22574403 7.02625599 67.12463403 9.87733898 77.0625 14.25 C79.39123375 14.93255989 81.72432791 15.60050775 84.0625 16.25 C85.73882417 16.89199649 87.41000513 17.54894157 89.0625 18.25 C89.0625 18.91 89.0625 19.57 89.0625 20.25 C90.34125 20.559375 91.62 20.86875 92.9375 21.1875 C95.16351675 21.72605244 97.00989999 22.2237 99.0625 23.25 C99.0625 23.91 99.0625 24.57 99.0625 25.25 C100.13951172 25.64832031 100.13951172 25.64832031 101.23828125 26.0546875 C110.10760618 29.80850967 117.72871024 36.12398207 125.0625 42.25 C126.12404297 43.10851562 126.12404297 43.10851562 127.20703125 43.984375 C131.93826006 47.87728017 131.93826006 47.87728017 133.0625 51.25 C134.3916028 52.58755049 135.72553857 53.92030466 137.0625 55.25 C139.55424172 58.81821786 141.78793303 62.54054264 144.0625 66.25 C144.67351562 67.16652344 144.67351562 67.16652344 145.296875 68.1015625 C150.85732238 76.78441495 151.33165286 86.43348033 151.375 96.4375 C151.38321777 97.82690796 151.38321777 97.82690796 151.39160156 99.24438477 C151.30162307 107.93739337 149.74416557 115.38462356 146.0625 123.25 C145.4025 123.25 144.7425 123.25 144.0625 123.25 C143.629375 124.8278125 143.629375 124.8278125 143.1875 126.4375 C142.29024807 129.47818711 141.29826581 132.33712344 140.0625 135.25 C139.4025 135.25 138.7425 135.25 138.0625 135.25 C137.7325 136.24 137.4025 137.23 137.0625 138.25 C135.96825872 139.41263136 134.8623059 140.56596325 133.70703125 141.66796875 C132.45163595 142.87565307 131.22486482 144.11316311 130.01171875 145.36328125 C125.84878725 149.64125058 121.71856651 153.48565814 116.7890625 156.86328125 C114.9464321 158.2201078 114.9464321 158.2201078 113.546875 160.32421875 C111.32920411 163.20135494 108.37653272 163.87867611 105.0625 165.25 C104.258125 165.930625 103.45375 166.61125 102.625 167.3125 C100.08583256 169.23235831 98.82975775 169.66939 95.8125 170.3125 C94.575 170.621875 93.3375 170.93125 92.0625 171.25 C91.7325 172.24 91.4025 173.23 91.0625 174.25 C89.28515625 174.875 89.28515625 174.875 87.125 175.25 C84.98873341 175.56926011 84.98873341 175.56926011 83.0625 176.25 C82.4025 177.24 81.7425 178.23 81.0625 179.25 C78.26953125 180.09375 78.26953125 180.09375 74.875 180.75 C71.2682313 181.4553983 68.17780247 182.19833631 64.81616211 183.70458984 C61.13255053 185.31379649 57.5110628 186.10788016 53.546875 186.8203125 C52.85039856 186.94687225 52.15392212 187.07343201 51.43634033 187.2038269 C49.97145971 187.46817073 48.50584285 187.72846425 47.03955078 187.98486328 C44.83044057 188.37185716 42.62419845 188.77272479 40.41796875 189.17578125 C27.11009855 191.57690377 14.26519418 192.41457534 0.76635742 192.38037109 C-1.73460006 192.37503287 -4.23537623 192.38033313 -6.73632812 192.38671875 C-18.77934657 192.39237883 -30.78879157 192.35555481 -42.59375 189.7109375 C-44.97296655 189.24302491 -47.26981597 189.03984209 -49.6875 188.875 C-62.3355044 187.71625426 -74.99194697 182.41892716 -86.9375 178.25 C-87.63480225 178.00757568 -88.33210449 177.76515137 -89.05053711 177.51538086 C-93.22400764 176.01423552 -96.94527875 174.25226048 -100.75 171.9375 C-104.72138701 169.55265951 -108.71362951 167.28318079 -112.8125 165.125 C-116.25956865 163.25415505 -119.34931801 161.37288314 -122.27734375 158.7265625 C-124.60594073 156.65548095 -127.06228957 154.75357967 -129.5 152.8125 C-133.51934325 149.5403074 -136.76174924 146.31893066 -139.9375 142.25 C-141.4225 141.26 -141.4225 141.26 -142.9375 140.25 C-143.4325 138.7340625 -143.4325 138.7340625 -143.9375 137.1875 C-144.2675 136.218125 -144.5975 135.24875 -144.9375 134.25 C-145.9275 133.92 -146.9175 133.59 -147.9375 133.25 C-149.05636286 130.91903571 -150.01624588 128.65576205 -150.9375 126.25 C-151.453125 125.05375 -151.96875 123.8575 -152.5 122.625 C-152.974375 121.51125 -153.44875 120.3975 -153.9375 119.25 C-154.329375 118.363125 -154.72125 117.47625 -155.125 116.5625 C-155.9375 114.25 -155.9375 114.25 -155.9375 110.25 C-156.5975 110.25 -157.2575 110.25 -157.9375 110.25 C-160.16394144 98.65095832 -159.50628581 87.46618398 -155.9375 76.25 C-155.2775 76.25 -154.6175 76.25 -153.9375 76.25 C-153.87433594 75.64414063 -153.81117188 75.03828125 -153.74609375 74.4140625 C-152.64281786 66.86533271 -149.61695164 62.15610401 -144.9375 56.25 C-143.86435547 54.83847656 -143.86435547 54.83847656 -142.76953125 53.3984375 C-138.7885183 48.24995081 -138.7885183 48.24995081 -136.9375 46.25 C-136.2775 46.25 -135.6175 46.25 -134.9375 46.25 C-134.9375 45.59 -134.9375 44.93 -134.9375 44.25 C-131.95763597 41.47544157 -128.72816405 39.00674739 -125.52392578 36.49658203 C-124.01514875 35.31101486 -122.52081044 34.10714037 -121.02734375 32.90234375 C-114.68067121 27.92238401 -108.3263686 24.17718043 -101.06640625 20.7578125 C-97.99690342 19.34183749 -97.99690342 19.34183749 -95.46484375 17.7421875 C-90.15321741 14.60611136 -84.63870619 12.7694569 -78.6875 11.25 C-77.36845177 10.90769775 -76.04944163 10.56524871 -74.73046875 10.22265625 C-73.47878906 9.90167969 -72.22710937 9.58070312 -70.9375 9.25 C-68.95693479 8.73451042 -66.97758566 8.21430455 -65 7.6875 C-64.20722656 7.47996094 -63.41445312 7.27242187 -62.59765625 7.05859375 C-59.73657723 6.23236992 -59.73657723 6.23236992 -56.2734375 4.765625 C-39.06088961 -1.71884178 -18.0573177 -0.02172255 0 0 Z M-30.25097656 4.77075195 C-33.59725017 5.36769262 -36.9043909 5.57695152 -40.29296875 5.78149414 C-52.33965344 6.54638201 -63.20922725 9.62685365 -74.59179688 13.52563477 C-77.02256733 14.27626923 -79.43644034 14.79256351 -81.9375 15.25 C-81.9375 15.91 -81.9375 16.57 -81.9375 17.25 C-83.21625 17.3325 -84.495 17.415 -85.8125 17.5 C-87.99083418 17.70869931 -87.99083418 17.70869931 -89.9375 18.25 C-91.5274433 20.17064793 -91.5274433 20.17064793 -91.9375 22.25 C-92.80375 22.1675 -93.67 22.085 -94.5625 22 C-98.74727673 22.30998346 -100.5749531 23.81751926 -103.9375 26.25 C-104.80375 26.58 -105.67 26.91 -106.5625 27.25 C-109.06826767 28.12923641 -109.06826767 28.12923641 -110.9375 30.25 C-112.9375 32.25 -112.9375 32.25 -115.25390625 33.14453125 C-122.20705686 36.00878398 -127.86744431 41.80765645 -132.5078125 47.6015625 C-134.04283556 49.37145247 -135.68191829 50.77524703 -137.5 52.25 C-143.566569 57.31217016 -146.39295973 62.87083321 -148.9375 70.25 C-149.4325 70.745 -149.4325 70.745 -149.9375 71.25 C-149.97830783 73.24958364 -149.98004356 75.25045254 -149.9375 77.25 C-150.5975 77.25 -151.2575 77.25 -151.9375 77.25 C-154.49120497 83.18162159 -155.42747543 87.94100145 -155.3125 94.375 C-155.30234863 95.20394775 -155.29219727 96.03289551 -155.28173828 96.88696289 C-154.86989831 113.43558676 -149.70555561 128.26990735 -137.9375 140.25 C-137.2775 140.25 -136.6175 140.25 -135.9375 140.25 C-135.875625 140.806875 -135.81375 141.36375 -135.75 141.9375 C-134.40120423 145.77638028 -131.55611796 148.44069102 -127.9375 150.25 C-125.66135154 151.38807423 -124.29583281 152.93626598 -122.546875 154.75 C-117.11098913 159.81645673 -111.26951965 163.81547442 -103.9375 165.25 C-103.9375 165.91 -103.9375 166.57 -103.9375 167.25 C-103.11507812 167.55292969 -102.29265625 167.85585937 -101.4453125 168.16796875 C-96.09477645 170.17596438 -90.83759574 172.19973153 -85.75 174.8125 C-78.75419328 178.40096396 -72.20857188 181.61580928 -64.23828125 181.87890625 C-61.53253315 182.31531723 -59.28320934 183.37868378 -56.7956543 184.49487305 C-53.83660918 185.69738606 -50.81617503 186.26923526 -47.6875 186.875 C-46.48609375 187.11476562 -45.2846875 187.35453125 -44.046875 187.6015625 C-35.55669202 189.05653045 -26.9966713 189.4072909 -18.3984375 189.41796875 C-17.43330231 189.42129715 -16.46816711 189.42462555 -15.4737854 189.42805481 C-13.44525625 189.43307962 -11.41671896 189.43546453 -9.38818359 189.43530273 C-6.34067614 189.43747987 -3.29353701 189.45565823 -0.24609375 189.47460938 C13.78910204 189.51585159 27.50538968 189.25062575 41.0625 185.25 C43.41193466 184.94079431 45.76683843 184.67100675 48.125 184.4375 C55.91669745 183.45968817 62.77093163 181.18257488 70.0625 178.25 C70.96871094 177.89550781 71.87492188 177.54101562 72.80859375 177.17578125 C74.44433909 176.53015946 76.07609998 175.87432419 77.703125 175.20703125 C79.30836442 174.55589937 80.923643 173.92910237 82.546875 173.32421875 C87.99114128 171.26993815 92.82971148 168.76080122 97.765625 165.6796875 C99.6385836 164.51386633 101.56322768 163.43142126 103.5 162.375 C116.33752225 155.05218801 127.34366914 145.12564893 136.0625 133.25 C136.619375 132.4971875 137.17625 131.744375 137.75 130.96875 C142.91238934 123.63815714 146.11327714 116.17269492 147.0625 107.25 C147.3925 106.92 147.7225 106.59 148.0625 106.25 C149.63768962 86.64985572 145.53840535 70.19320352 133.0390625 54.75 C130.79482576 52.15737994 128.46624646 49.69532069 126.0625 47.25 C125.20140625 46.36441406 124.3403125 45.47882813 123.453125 44.56640625 C113.03968759 34.42624965 100.48077838 26.65253668 87.03125 21.15234375 C85.0625 20.25 85.0625 20.25 83.0625 18.25 C81.24068476 17.4731543 81.24068476 17.4731543 79.1328125 16.84765625 C77.94909058 16.47411011 77.94909058 16.47411011 76.74145508 16.09301758 C75.47724731 15.70666138 75.47724731 15.70666138 74.1875 15.3125 C73.32342529 15.04526123 72.45935059 14.77802246 71.5690918 14.50268555 C61.06319017 11.28679361 50.54766061 8.89293348 39.74609375 6.94140625 C36.94072045 6.41484095 34.20265532 5.82015078 31.4375 5.125 C20.6688502 2.6905145 9.13623829 3.06347292 -1.86083984 3.06469727 C-4.06757481 3.06249494 -6.27382036 3.04419868 -8.48046875 3.02539062 C-15.88256563 2.99657621 -22.95739613 3.36895109 -30.25097656 4.77075195 Z " fill="#62708D" transform="translate(158.9375,34.75)"/>
<path d="M0 0 C1.49756836 -0.00193359 1.49756836 -0.00193359 3.02539062 -0.00390625 C4.07791016 -0.00003906 5.13042969 0.00382812 6.21484375 0.0078125 C7.75301758 0.00201172 7.75301758 0.00201172 9.32226562 -0.00390625 C15.02752916 0.00339415 20.5103598 0.27940316 26.15234375 1.1328125 C26.15234375 1.7928125 26.15234375 2.4528125 26.15234375 3.1328125 C27.47234375 3.1328125 28.79234375 3.1328125 30.15234375 3.1328125 C30.15234375 3.7928125 30.15234375 4.4528125 30.15234375 5.1328125 C30.91546875 5.2565625 31.67859375 5.3803125 32.46484375 5.5078125 C35.15234375 6.1328125 35.15234375 6.1328125 38.15234375 8.1328125 C38.83984375 11.2578125 38.83984375 11.2578125 39.15234375 14.1328125 C30.54870451 14.82110364 30.54870451 14.82110364 26.58984375 12.2578125 C25.78546875 11.5565625 24.98109375 10.8553125 24.15234375 10.1328125 C24.15234375 9.4728125 24.15234375 8.8128125 24.15234375 8.1328125 C16.89234375 8.1328125 9.63234375 8.1328125 2.15234375 8.1328125 C2.15234375 12.4228125 2.15234375 16.7128125 2.15234375 21.1328125 C3.14234375 21.1328125 4.13234375 21.1328125 5.15234375 21.1328125 C4.82234375 22.1228125 4.49234375 23.1128125 4.15234375 24.1328125 C4.00456439 25.83148438 3.90487309 27.53458739 3.8359375 29.23828125 C3.79404297 30.22119141 3.75214844 31.20410156 3.70898438 32.21679688 C3.66966797 33.24095703 3.63035156 34.26511719 3.58984375 35.3203125 C3.54666016 36.35607422 3.50347656 37.39183594 3.45898438 38.45898438 C3.35290009 41.0167944 3.25084229 43.57470095 3.15234375 46.1328125 C16.88623478 46.3641891 16.88623478 46.3641891 28.58203125 40.6015625 C29.85983183 38.80858762 29.85983183 38.80858762 31.15234375 36.1328125 C27.85234375 36.1328125 24.55234375 36.1328125 21.15234375 36.1328125 C21.15234375 34.4828125 21.15234375 32.8328125 21.15234375 31.1328125 C21.81234375 31.1328125 22.47234375 31.1328125 23.15234375 31.1328125 C23.49265625 30.3284375 23.49265625 30.3284375 23.83984375 29.5078125 C25.58616431 26.34780387 27.79262865 23.8651142 30.15234375 21.1328125 C27.51234375 21.1328125 24.87234375 21.1328125 22.15234375 21.1328125 C22.15234375 19.8128125 22.15234375 18.4928125 22.15234375 17.1328125 C31.06234375 17.1328125 39.97234375 17.1328125 49.15234375 17.1328125 C49.15234375 18.4528125 49.15234375 19.7728125 49.15234375 21.1328125 C46.51234375 21.1328125 43.87234375 21.1328125 41.15234375 21.1328125 C41.15234375 22.1228125 41.15234375 23.1128125 41.15234375 24.1328125 C43.46234375 24.1328125 45.77234375 24.1328125 48.15234375 24.1328125 C48.15234375 25.4528125 48.15234375 26.7728125 48.15234375 28.1328125 C46.17234375 28.1328125 44.19234375 28.1328125 42.15234375 28.1328125 C42.15234375 29.1228125 42.15234375 30.1128125 42.15234375 31.1328125 C44.46234375 31.1328125 46.77234375 31.1328125 49.15234375 31.1328125 C49.64734375 33.6078125 49.64734375 33.6078125 50.15234375 36.1328125 C46.85234375 36.1328125 43.55234375 36.1328125 40.15234375 36.1328125 C40.15234375 37.7828125 40.15234375 39.4328125 40.15234375 41.1328125 C35.20058612 47.10404964 27.72310955 52.56252187 19.80566406 53.37304688 C17.26707684 53.42674202 14.75312186 53.39500014 12.21484375 53.3203125 C7.72890625 53.2275 7.72890625 53.2275 3.15234375 53.1328125 C3.15234375 64.3528125 3.15234375 75.5728125 3.15234375 87.1328125 C0.51234375 87.1328125 -2.12765625 87.1328125 -4.84765625 87.1328125 C-4.84765625 67.6628125 -4.84765625 48.1928125 -4.84765625 28.1328125 C-7.81765625 28.1328125 -10.78765625 28.1328125 -13.84765625 28.1328125 C-14.50765625 27.1428125 -15.16765625 26.1528125 -15.84765625 25.1328125 C-14.99300781 25.07222656 -14.13835937 25.01164062 -13.2578125 24.94921875 C-11.60072266 24.82353516 -11.60072266 24.82353516 -9.91015625 24.6953125 C-8.80800781 24.61410156 -7.70585938 24.53289062 -6.5703125 24.44921875 C-3.93655722 24.42863166 -3.93655722 24.42863166 -2.84765625 23.1328125 C-2.69110598 21.64642258 -2.59698682 20.15332123 -2.53125 18.66015625 C-2.48935547 17.76103516 -2.44746094 16.86191406 -2.40429688 15.93554688 C-2.36498047 14.99001953 -2.32566406 14.04449219 -2.28515625 13.0703125 C-2.24197266 12.12091797 -2.19878906 11.17152344 -2.15429688 10.19335938 C-2.04786493 7.84003074 -1.94722471 5.48644151 -1.84765625 3.1328125 C1.12234375 3.1328125 4.09234375 3.1328125 7.15234375 3.1328125 C7.48234375 3.7928125 7.81234375 4.4528125 8.15234375 5.1328125 C11.32317749 5.68139097 11.32317749 5.68139097 15.02734375 5.8828125 C16.28289062 5.98078125 17.5384375 6.07875 18.83203125 6.1796875 C22.29271871 6.43132328 22.29271871 6.43132328 25.15234375 4.1328125 C23.32014729 2.30061604 20.39520634 2.89379922 17.9296875 2.81640625 C16.66962891 2.77451172 15.40957031 2.73261719 14.11132812 2.68945312 C12.77083639 2.64963654 11.43034155 2.60992436 10.08984375 2.5703125 C8.74542852 2.52713208 7.40102715 2.48351794 6.05664062 2.43945312 C2.75534362 2.33295967 -0.54614204 2.232345 -3.84765625 2.1328125 C-3.84765625 9.0628125 -3.84765625 15.9928125 -3.84765625 23.1328125 C-6.52998452 24.47397664 -8.66597884 24.30185271 -11.66015625 24.3203125 C-12.69785156 24.33449219 -13.73554687 24.34867188 -14.8046875 24.36328125 C-17.88536158 24.12995677 -20.06527217 23.43400136 -22.84765625 22.1328125 C-19.16365041 20.90177095 -15.93290649 21.22513998 -12.09765625 21.5703125 C-10.9271875 21.67214844 -9.75671875 21.77398437 -8.55078125 21.87890625 C-7.65875 21.96269531 -6.76671875 22.04648438 -5.84765625 22.1328125 C-5.85551147 21.18643921 -5.85551147 21.18643921 -5.86352539 20.22094727 C-5.88423451 17.37907903 -5.89729691 14.53722662 -5.91015625 11.6953125 C-5.91853516 10.70208984 -5.92691406 9.70886719 -5.93554688 8.68554688 C-5.94038086 7.26918945 -5.94038086 7.26918945 -5.9453125 5.82421875 C-5.95316772 4.51239624 -5.95316772 4.51239624 -5.96118164 3.17407227 C-5.74039282 -0.79585326 -3.42563967 0.0042581 0 0 Z " fill="#112959" transform="translate(129.84765625,125.8671875)"/>
<path d="M0 0 C1.07058655 -0.00095673 2.1411731 -0.00191345 3.24420166 -0.00289917 C5.49662332 -0.00357718 7.74904698 -0.00174944 10.00146484 0.00244141 C13.45544788 0.00781611 16.90930212 0.00247274 20.36328125 -0.00390625 C22.55468779 -0.00324581 24.74609424 -0.00196537 26.9375 0 C27.97187195 -0.00202423 29.0062439 -0.00404846 30.07196045 -0.00613403 C31.03015686 -0.00298187 31.98835327 0.00017029 32.97558594 0.00341797 C34.23964264 0.00461136 34.23964264 0.00461136 35.52923584 0.00582886 C37.703125 0.1328125 37.703125 0.1328125 40.703125 1.1328125 C42.10898125 1.34240788 43.52017493 1.51760505 44.93359375 1.66796875 C45.73603516 1.75498047 46.53847656 1.84199219 47.36523438 1.93164062 C48.19861328 2.01865234 49.03199219 2.10566406 49.890625 2.1953125 C51.1580957 2.33163086 51.1580957 2.33163086 52.45117188 2.47070312 C54.53483985 2.6943737 56.61894295 2.91398401 58.703125 3.1328125 C58.703125 3.7928125 58.703125 4.4528125 58.703125 5.1328125 C59.49074219 5.23078125 60.27835937 5.32875 61.08984375 5.4296875 C71.86636903 6.90906849 81.76525903 9.76015148 91.703125 14.1328125 C94.03185875 14.81537239 96.36495291 15.48332025 98.703125 16.1328125 C100.37944917 16.77480899 102.05063013 17.43175407 103.703125 18.1328125 C103.703125 18.7928125 103.703125 19.4528125 103.703125 20.1328125 C104.981875 20.4421875 106.260625 20.7515625 107.578125 21.0703125 C109.80414175 21.60886494 111.65052499 22.1065125 113.703125 23.1328125 C113.703125 23.7928125 113.703125 24.4528125 113.703125 25.1328125 C114.42113281 25.39835937 115.13914062 25.66390625 115.87890625 25.9375 C124.74823118 29.69132217 132.36933524 36.00679457 139.703125 42.1328125 C140.76466797 42.99132812 140.76466797 42.99132812 141.84765625 43.8671875 C146.57888506 47.76009267 146.57888506 47.76009267 147.703125 51.1328125 C149.0322278 52.47036299 150.36616357 53.80311716 151.703125 55.1328125 C154.19486672 58.70103036 156.42855803 62.42335514 158.703125 66.1328125 C159.31414062 67.04933594 159.31414062 67.04933594 159.9375 67.984375 C165.334408 76.41185441 165.96990038 85.84591618 166.015625 95.5703125 C166.02110352 96.43487061 166.02658203 97.29942871 166.03222656 98.19018555 C165.98227681 102.60169645 165.76902455 106.12447353 163.703125 110.1328125 C163.373125 110.1328125 163.043125 110.1328125 162.703125 110.1328125 C162.70425293 109.50004395 162.70538086 108.86727539 162.70654297 108.21533203 C162.60291817 83.30483141 157.4943215 65.2401692 139.703125 47.1328125 C138.91550781 46.32070312 138.12789062 45.50859375 137.31640625 44.671875 C127.22086889 34.87008222 114.67075193 27.35105499 101.671875 22.03515625 C99.703125 21.1328125 99.703125 21.1328125 97.703125 19.1328125 C95.88130976 18.3559668 95.88130976 18.3559668 93.7734375 17.73046875 C92.58971558 17.35692261 92.58971558 17.35692261 91.38208008 16.97583008 C90.5392749 16.71825928 89.69646973 16.46068848 88.828125 16.1953125 C87.96405029 15.92807373 87.09997559 15.66083496 86.2097168 15.38549805 C75.70381517 12.16960611 65.18828561 9.77574598 54.38671875 7.82421875 C51.58134545 7.29765345 48.84328032 6.70296328 46.078125 6.0078125 C41.0331671 4.82478943 35.90261363 4.65435383 30.7421875 4.37890625 C27.703125 4.1328125 27.703125 4.1328125 24.703125 3.1328125 C19.60503691 2.86087052 14.49535768 2.89005671 9.390625 2.8828125 C8.65024994 2.88047607 7.90987488 2.87813965 7.14706421 2.87573242 C-4.86757212 2.86141592 -16.4144945 3.84189725 -28.27099609 5.8515625 C-30.95805117 6.22460268 -33.58973818 6.23777419 -36.296875 6.1328125 C-35.966875 5.4728125 -35.636875 4.8128125 -35.296875 4.1328125 C-32.57766432 3.51102363 -29.9217036 3.00485899 -27.171875 2.5703125 C-26.42421875 2.44462891 -25.6765625 2.31894531 -24.90625 2.18945312 C-22.70487331 1.8231962 -20.5029568 1.46964173 -18.296875 1.1328125 C-16.77876221 0.86827271 -16.77876221 0.86827271 -15.22998047 0.59838867 C-10.13752578 -0.00442393 -5.12328439 -0.0101052 0 0 Z " fill="#425174" transform="translate(144.296875,34.8671875)"/>
<path d="M0 0 C-2.97 0.66 -5.94 1.32 -9 2 C-6.74956078 1.88317392 -4.4996584 1.7560042 -2.25 1.625 C-0.99703125 1.55539063 0.2559375 1.48578125 1.546875 1.4140625 C4.90861449 1.16753494 8.12912592 0.60741694 11.4375 -0.03125 C19.36373493 -1.40478078 27.23536595 -1.2173626 35.25 -1.125 C36.78515035 -1.11494089 38.32030715 -1.10582027 39.85546875 -1.09765625 C43.57044927 -1.07589619 47.28518161 -1.04153134 51 -1 C51 -0.67 51 -0.34 51 0 C50.12375977 0.01981934 49.24751953 0.03963867 48.34472656 0.06005859 C45.03443082 0.13904139 41.72451173 0.2257524 38.41455078 0.31738281 C36.99307816 0.35522034 35.57152439 0.39014384 34.14990234 0.421875 C26.21385955 0.60109403 18.53348979 1.07349245 10.70849609 2.53613281 C7.3551289 3.11044304 4.03671582 3.32663266 0.64453125 3.53173828 C-9.57045049 4.17930966 -18.7507187 6.36555276 -28.44848633 9.61206055 C-29.81976685 10.07092651 -29.81976685 10.07092651 -31.21875 10.5390625 C-32.02248047 10.81959473 -32.82621094 11.10012695 -33.65429688 11.38916016 C-36.19015136 12.04951693 -38.39072303 12.10823753 -41 12 C-41 12.66 -41 13.32 -41 14 C-41.63808594 14.19335938 -42.27617188 14.38671875 -42.93359375 14.5859375 C-43.75988281 14.84632812 -44.58617188 15.10671875 -45.4375 15.375 C-46.26121094 15.63023438 -47.08492188 15.88546875 -47.93359375 16.1484375 C-50.17798016 16.80882227 -50.17798016 16.80882227 -51 19 C-52.99897774 19.4915519 -54.99914918 19.97934661 -57.0078125 20.4296875 C-59.46637458 21.13351115 -61.01187785 22.42321347 -63 24 C-65.75 24.6875 -65.75 24.6875 -68 25 C-68.495 26.485 -68.495 26.485 -69 28 C-70.86524176 28.91566413 -72.73302744 29.82650932 -74.61328125 30.7109375 C-81.31280456 34.32933798 -86.90252136 39.51022384 -91.63671875 45.41796875 C-93 47 -93 47 -96.0625 49.5 C-103.81432668 56.0972993 -106.41643479 64.46068229 -109 74 C-109.66 74 -110.32 74 -111 74 C-111.33 75.32 -111.66 76.64 -112 78 C-112.33 77.34 -112.66 76.68 -113 76 C-112.690625 75.29875 -112.38125 74.5975 -112.0625 73.875 C-110.7430539 70.93047493 -110.7430539 70.93047493 -111.3125 67.3125 C-111.45783835 61.35362745 -107.54827166 57.44698962 -104 53 C-103.28199219 52.05640625 -102.56398438 51.1128125 -101.82421875 50.140625 C-97.86022549 45.0098988 -97.86022549 45.0098988 -96 43 C-95.34 43 -94.68 43 -94 43 C-94 42.34 -94 41.68 -94 41 C-91.02013597 38.22544157 -87.79066405 35.75674739 -84.58642578 33.24658203 C-83.07764875 32.06101486 -81.58331044 30.85714037 -80.08984375 29.65234375 C-73.74317121 24.67238401 -67.3888686 20.92718043 -60.12890625 17.5078125 C-57.05940342 16.09183749 -57.05940342 16.09183749 -54.52734375 14.4921875 C-49.21571741 11.35611136 -43.70120619 9.5194569 -37.75 8 C-36.43095177 7.65769775 -35.11194163 7.31524871 -33.79296875 6.97265625 C-32.54128906 6.65167969 -31.28960937 6.33070312 -30 6 C-22.27613455 3.99876032 -22.27613455 3.99876032 -14.75 1.375 C-9.42211302 -0.57855856 -5.53284701 -1.38321175 0 0 Z " fill="#596684" transform="translate(118,38)"/>
<path d="M0 0 C0.66 0 1.32 0 2 0 C2.66 2.97 3.32 5.94 4 9 C5.0725 8.835 6.145 8.67 7.25 8.5 C18.11841611 7.16994908 29.12238253 8.22697135 40 9 C39.67 11.64 39.34 14.28 39 17 C33.90970056 17.0740421 28.81971308 17.12855008 23.72900391 17.16479492 C21.99652651 17.1799009 20.26408746 17.20038694 18.53173828 17.22631836 C16.04450022 17.26262321 13.55776674 17.27970765 11.0703125 17.29296875 C10.29317902 17.30845261 9.51604553 17.32393646 8.71536255 17.33988953 C6.53173828 17.34057617 6.53173828 17.34057617 3 17 C2.34 16.01 1.68 15.02 1 14 C0.01 14.66 -0.98 15.32 -2 16 C-4.69921875 16.1953125 -4.69921875 16.1953125 -7.6875 16.125 C-9.17830078 16.09792969 -9.17830078 16.09792969 -10.69921875 16.0703125 C-11.45847656 16.04710937 -12.21773437 16.02390625 -13 16 C-13 13.36 -13 10.72 -13 8 C-12.34 8 -11.68 8 -11 8 C-11 7.01 -11 6.02 -11 5 C-10.34 5 -9.68 5 -9 5 C-9 4.34 -9 3.68 -9 3 C-9.99 3 -10.98 3 -12 3 C-12 2.34 -12 1.68 -12 1 C-10.02 1 -8.04 1 -6 1 C-6 1.99 -6 2.98 -6 4 C-4.68 4.33 -3.36 4.66 -2 5 C-1.67 6.32 -1.34 7.64 -1 9 C-0.67 6.03 -0.34 3.06 0 0 Z " fill="#ACB4C1" transform="translate(156,186)"/>
<path d="M0 0 C8.91 0 17.82 0 27 0 C27 1.32 27 2.64 27 4 C24.36 4 21.72 4 19 4 C19 4.99 19 5.98 19 7 C21.31 7 23.62 7 26 7 C26 8.32 26 9.64 26 11 C24.02 11 22.04 11 20 11 C20 11.99 20 12.98 20 14 C22.31 14 24.62 14 27 14 C27.33 15.65 27.66 17.3 28 19 C24.7 19 21.4 19 18 19 C18 20.65 18 22.3 18 24 C17.67 23.01 17.34 22.02 17 21 C12.35413108 21.48484276 12.35413108 21.48484276 8 23 C8.33 21.68 8.66 20.36 9 19 C5.7 19 2.4 19 -1 19 C-1 17.35 -1 15.7 -1 14 C-0.34 14 0.32 14 1 14 C1.226875 13.46375 1.45375 12.9275 1.6875 12.375 C3.43382056 9.21499137 5.6402849 6.7323017 8 4 C5.36 4 2.72 4 0 4 C0 2.68 0 1.36 0 0 Z " fill="#B2BAC6" transform="translate(152,143)"/>
<path d="M0 0 C1.76184597 3.52369194 0.03590353 7.34457031 -1 11 C-1.8993004 13.40104476 -2.91165185 15.67489259 -4 18 C-4.66 18 -5.32 18 -6 18 C-6.28875 19.051875 -6.5775 20.10375 -6.875 21.1875 C-7.77225193 24.22818711 -8.76423419 27.08712344 -10 30 C-10.66 30 -11.32 30 -12 30 C-12.495 31.485 -12.495 31.485 -13 33 C-14.09424128 34.16263136 -15.2001941 35.31596325 -16.35546875 36.41796875 C-17.61086405 37.62565307 -18.83763518 38.86316311 -20.05078125 40.11328125 C-24.21371275 44.39125058 -28.34393349 48.23565814 -33.2734375 51.61328125 C-35.1160679 52.9701078 -35.1160679 52.9701078 -36.515625 55.07421875 C-38.73329589 57.95135494 -41.68596728 58.62867611 -45 60 C-46.2065625 61.0209375 -46.2065625 61.0209375 -47.4375 62.0625 C-49.97666744 63.98235831 -51.23274225 64.41939 -54.25 65.0625 C-55.4875 65.371875 -56.725 65.68125 -58 66 C-58.33 66.99 -58.66 67.98 -59 69 C-60.77734375 69.625 -60.77734375 69.625 -62.9375 70 C-65.07376659 70.31926011 -65.07376659 70.31926011 -67 71 C-67.66 71.99 -68.32 72.98 -69 74 C-72.625 74.6875 -72.625 74.6875 -76 75 C-75.505 74.01 -75.505 74.01 -75 73 C-76.65 73 -78.3 73 -80 73 C-79 71 -79 71 -76.83984375 70.2109375 C-75.88207031 69.93507813 -74.92429688 69.65921875 -73.9375 69.375 C-49.01136329 61.36197147 -24.95037205 44.78501637 -11.41015625 22.25 C-10 20 -10 20 -8 18 C-6.19966396 13.77050241 -5.06998508 9.62986574 -4.5625 5.0625 C-4 2 -4 2 -1.9375 0.5625 C-0.9784375 0.2840625 -0.9784375 0.2840625 0 0 Z " fill="#495475" transform="translate(309,140)"/>
<path d="M0 0 C1.60875 -0.04125 3.2175 -0.0825 4.875 -0.125 C5.77992188 -0.14820313 6.68484375 -0.17140625 7.6171875 -0.1953125 C10 0 10 0 12 2 C12.40047444 4.32275177 12.7397104 6.65739357 13 9 C13.66 9 14.32 9 15 9 C15.99 9 16.98 9 18 9 C18.33 6.36 18.66 3.72 19 1 C20.65 1 22.3 1 24 1 C24.73632461 2.70693431 25.47151276 4.4143736 26.19921875 6.125 C26.85080097 7.65065593 27.51700382 9.17006128 28.1875 10.6875 C29 13 29 13 29 17 C28.01 16.67 27.02 16.34 26 16 C26 15.01 26 14.02 26 13 C23.69 13.33 21.38 13.66 19 14 C18.67 15.65 18.34 17.3 18 19 C16.35 19 14.7 19 13 19 C13 18.34 13 17.68 13 17 C8.71 17 4.42 17 0 17 C0 11.39 0 5.78 0 0 Z " fill="#919DB1" transform="translate(197,143)"/>
<path d="M0 0 C1.07058655 -0.00095673 2.1411731 -0.00191345 3.24420166 -0.00289917 C5.49662332 -0.00357718 7.74904698 -0.00174944 10.00146484 0.00244141 C13.45544788 0.00781611 16.90930212 0.00247274 20.36328125 -0.00390625 C22.55468779 -0.00324581 24.74609424 -0.00196537 26.9375 0 C27.97187195 -0.00202423 29.0062439 -0.00404846 30.07196045 -0.00613403 C31.03015686 -0.00298187 31.98835327 0.00017029 32.97558594 0.00341797 C34.23964264 0.00461136 34.23964264 0.00461136 35.52923584 0.00582886 C37.703125 0.1328125 37.703125 0.1328125 40.703125 1.1328125 C42.10898125 1.34240788 43.52017493 1.51760505 44.93359375 1.66796875 C45.73603516 1.75498047 46.53847656 1.84199219 47.36523438 1.93164062 C48.19861328 2.01865234 49.03199219 2.10566406 49.890625 2.1953125 C51.1580957 2.33163086 51.1580957 2.33163086 52.45117188 2.47070312 C54.53483985 2.6943737 56.61894295 2.91398401 58.703125 3.1328125 C58.703125 3.7928125 58.703125 4.4528125 58.703125 5.1328125 C59.49074219 5.23078125 60.27835937 5.32875 61.08984375 5.4296875 C69.27433211 6.55323856 76.87987576 8.49518673 84.703125 11.1328125 C84.043125 11.7928125 83.383125 12.4528125 82.703125 13.1328125 C78.02799917 12.81039003 73.76108732 11.93655894 69.23046875 10.734375 C65.0606475 9.74186732 60.83951742 9.01005575 56.62353516 8.24316406 C53.07825155 7.59406252 49.57319937 6.88649911 46.078125 6.0078125 C41.0331671 4.82478943 35.90261363 4.65435383 30.7421875 4.37890625 C27.703125 4.1328125 27.703125 4.1328125 24.703125 3.1328125 C19.60503691 2.86087052 14.49535768 2.89005671 9.390625 2.8828125 C8.65024994 2.88047607 7.90987488 2.87813965 7.14706421 2.87573242 C-4.86757212 2.86141592 -16.4144945 3.84189725 -28.27099609 5.8515625 C-30.95805117 6.22460268 -33.58973818 6.23777419 -36.296875 6.1328125 C-35.966875 5.4728125 -35.636875 4.8128125 -35.296875 4.1328125 C-32.57766432 3.51102363 -29.9217036 3.00485899 -27.171875 2.5703125 C-26.42421875 2.44462891 -25.6765625 2.31894531 -24.90625 2.18945312 C-22.70487331 1.8231962 -20.5029568 1.46964173 -18.296875 1.1328125 C-16.77876221 0.86827271 -16.77876221 0.86827271 -15.22998047 0.59838867 C-10.13752578 -0.00442393 -5.12328439 -0.0101052 0 0 Z " fill="#485879" transform="translate(144.296875,34.8671875)"/>
<path d="M0 0 C1.49756836 -0.00193359 1.49756836 -0.00193359 3.02539062 -0.00390625 C4.07791016 -0.00003906 5.13042969 0.00382812 6.21484375 0.0078125 C7.75301758 0.00201172 7.75301758 0.00201172 9.32226562 -0.00390625 C15.02752916 0.00339415 20.5103598 0.27940316 26.15234375 1.1328125 C26.15234375 1.7928125 26.15234375 2.4528125 26.15234375 3.1328125 C27.47234375 3.1328125 28.79234375 3.1328125 30.15234375 3.1328125 C30.15234375 3.7928125 30.15234375 4.4528125 30.15234375 5.1328125 C30.91546875 5.2565625 31.67859375 5.3803125 32.46484375 5.5078125 C35.15234375 6.1328125 35.15234375 6.1328125 38.15234375 8.1328125 C38.83984375 11.2578125 38.83984375 11.2578125 39.15234375 14.1328125 C30.54870451 14.82110364 30.54870451 14.82110364 26.58984375 12.2578125 C25.78546875 11.5565625 24.98109375 10.8553125 24.15234375 10.1328125 C24.15234375 9.4728125 24.15234375 8.8128125 24.15234375 8.1328125 C17.22234375 8.1328125 10.29234375 8.1328125 3.15234375 8.1328125 C3.15234375 7.8028125 3.15234375 7.4728125 3.15234375 7.1328125 C3.99212769 7.1030835 3.99212769 7.1030835 4.84887695 7.07275391 C7.38800229 6.97743467 9.92631263 6.86778497 12.46484375 6.7578125 C13.34591797 6.726875 14.22699219 6.6959375 15.13476562 6.6640625 C15.98232422 6.62539062 16.82988281 6.58671875 17.703125 6.546875 C18.48341064 6.5154541 19.26369629 6.4840332 20.06762695 6.45166016 C22.45390143 6.23693361 22.45390143 6.23693361 25.15234375 4.1328125 C23.32014729 2.30061604 20.39520634 2.89379922 17.9296875 2.81640625 C16.66962891 2.77451172 15.40957031 2.73261719 14.11132812 2.68945312 C12.77083639 2.64963654 11.43034155 2.60992436 10.08984375 2.5703125 C8.74542852 2.52713208 7.40102715 2.48351794 6.05664062 2.43945312 C2.75534362 2.33295967 -0.54614204 2.232345 -3.84765625 2.1328125 C-3.84765625 9.0628125 -3.84765625 15.9928125 -3.84765625 23.1328125 C-6.52998452 24.47397664 -8.66597884 24.30185271 -11.66015625 24.3203125 C-12.69785156 24.33449219 -13.73554687 24.34867188 -14.8046875 24.36328125 C-17.88536158 24.12995677 -20.06527217 23.43400136 -22.84765625 22.1328125 C-19.16365041 20.90177095 -15.93290649 21.22513998 -12.09765625 21.5703125 C-10.9271875 21.67214844 -9.75671875 21.77398437 -8.55078125 21.87890625 C-7.65875 21.96269531 -6.76671875 22.04648438 -5.84765625 22.1328125 C-5.85551147 21.18643921 -5.85551147 21.18643921 -5.86352539 20.22094727 C-5.88423451 17.37907903 -5.89729691 14.53722662 -5.91015625 11.6953125 C-5.91853516 10.70208984 -5.92691406 9.70886719 -5.93554688 8.68554688 C-5.94038086 7.26918945 -5.94038086 7.26918945 -5.9453125 5.82421875 C-5.95316772 4.51239624 -5.95316772 4.51239624 -5.96118164 3.17407227 C-5.74039282 -0.79585326 -3.42563967 0.0042581 0 0 Z " fill="#283F68" transform="translate(129.84765625,125.8671875)"/>
<path d="M0 0 C9.37877608 -0.1598655 18.65190221 0.33566818 28 1 C27.67 3.64 27.34 6.28 27 9 C15.12 9 3.24 9 -9 9 C-9.33 8.34 -9.66 7.68 -10 7 C-9.01 7 -8.02 7 -7 7 C-6.67 5.68 -6.34 4.36 -6 3 C-5.67 4.32 -5.34 5.64 -5 7 C-3.35 7 -1.7 7 0 7 C0.99 5.02 1.98 3.04 3 1 C2.01 0.67 1.02 0.34 0 0 Z " fill="#C3CAD4" transform="translate(168,194)"/>
<path d="M0 0 C2.31 0 4.62 0 7 0 C7 0.99 7 1.98 7 3 C7.99 3 8.98 3 10 3 C10 5.64 10 8.28 10 11 C12.12046792 7.46588679 12.53199289 4.05606165 13 0 C13.66 0 14.32 0 15 0 C15.36742078 4.59275973 15.29596306 8.19667169 13.6875 12.5625 C10.48914632 15.46333241 9.44369557 15.35880813 5.25 15.375 C3.49818649 15.27869612 1.74690364 15.16264275 0 15 C-0.27429625 9.60550707 -0.36055646 6.48074195 3 2 C2.01 2 1.02 2 0 2 C0 1.34 0 0.68 0 0 Z " fill="#9CA5B7" transform="translate(211,187)"/>
<path d="M0 0 C0 0.66 0 1.32 0 2 C0.66 2.33 1.32 2.66 2 3 C-0.21648857 5.21648857 -2.34465113 5.98268266 -5.2109375 7.14453125 C-7.22779677 8.01607828 -7.22779677 8.01607828 -9.4375 10.0625 C-11.97666744 11.98235831 -13.23274225 12.41939 -16.25 13.0625 C-17.4875 13.371875 -18.725 13.68125 -20 14 C-20.33 14.99 -20.66 15.98 -21 17 C-22.77734375 17.625 -22.77734375 17.625 -24.9375 18 C-27.07376659 18.31926011 -27.07376659 18.31926011 -29 19 C-29.66 19.99 -30.32 20.98 -31 22 C-34.625 22.6875 -34.625 22.6875 -38 23 C-37.67 22.34 -37.34 21.68 -37 21 C-38.65 21 -40.3 21 -42 21 C-41 19 -41 19 -38.83984375 18.2109375 C-37.40318359 17.79714844 -37.40318359 17.79714844 -35.9375 17.375 C-24.50667279 13.71441367 -13.95735671 7.96207826 -4.0390625 1.25 C-2 0 -2 0 0 0 Z " fill="#596685" transform="translate(271,192)"/>
<path d="M0 0 C0.33 0 0.66 0 1 0 C1 7.26 1 14.52 1 22 C15.20778606 21.81874563 15.20778606 21.81874563 27.625 15.8125 C30.81723909 13.37631754 33.08998967 13.69333252 37 14 C36.51409973 18.21113568 34.12379394 21.29321739 31 24 C28.35734 25.31643619 25.84145411 26.13311569 23 27 C23 25.35 23 23.7 23 22 C22.01 22.33 21.02 22.66 20 23 C18.44578271 23.08106686 16.88832973 23.10756898 15.33203125 23.09765625 C14.52741455 23.09515869 13.72279785 23.09266113 12.89379883 23.09008789 C11.36855591 23.07643188 11.36855591 23.07643188 9.8125 23.0625 C4.9553125 23.0315625 4.9553125 23.0315625 0 23 C0 15.41 0 7.82 0 0 Z " fill="#30456D" transform="translate(132,150)"/>
<path d="M0 0 C4.45280788 -0.17461992 8.08594062 -0.30238787 12 2 C12.8125 4.125 12.8125 4.125 13 6 C13.45375 5.34 13.9075 4.68 14.375 4 C14.91125 3.34 15.4475 2.68 16 2 C16.66 2 17.32 2 18 2 C18 5.3 18 8.6 18 12 C14.33333333 12 10.66666667 12 7 12 C7 9.69 7 7.38 7 5 C6.34 5 5.68 5 5 5 C5 7.31 5 9.62 5 12 C4.01 12 3.02 12 2 12 C2 9.36 2 6.72 2 4 C1.34 4 0.68 4 0 4 C0 2.68 0 1.36 0 0 Z " fill="#6B7A92" transform="translate(218,125)"/>
<path d="M0 0 C2.72752331 0.22600946 5.39137795 0.63530684 8.07421875 1.171875 C8.07421875 1.831875 8.07421875 2.491875 8.07421875 3.171875 C8.86183594 3.26984375 9.64945313 3.3678125 10.4609375 3.46875 C18.64542586 4.59230106 26.25096951 6.53424923 34.07421875 9.171875 C33.41421875 9.831875 32.75421875 10.491875 32.07421875 11.171875 C27.39909292 10.84945253 23.13218107 9.97562144 18.6015625 8.7734375 C15.13643671 7.94866258 11.6391456 7.31428195 8.13671875 6.671875 C2.41848793 5.62251881 -3.26227579 4.48661734 -8.92578125 3.171875 C-6.16992581 -0.07030787 -4.24903102 -0.15708063 0 0 Z " fill="#63728E" transform="translate(194.92578125,36.828125)"/>
<path d="M0 0 C0 19.14 0 38.28 0 58 C-2.55636086 55.44363914 -2.26835607 54.45895622 -2.31884766 50.90771484 C-2.33871735 49.84676605 -2.35858704 48.78581726 -2.37905884 47.69271851 C-2.39061005 46.54373077 -2.40216125 45.39474304 -2.4140625 44.2109375 C-2.43342865 43.03737701 -2.4527948 41.86381653 -2.4727478 40.6546936 C-2.53267664 36.89487039 -2.57898246 33.13501677 -2.625 29.375 C-2.6631675 26.83071558 -2.70221849 24.28644425 -2.7421875 21.7421875 C-2.83838905 15.49490759 -2.92339738 9.24754928 -3 3 C-5.64 3 -8.28 3 -11 3 C-7.25667087 0.99464511 -4.26323685 0 0 0 Z " fill="#C8CED8" transform="translate(125,154)"/>
<path d="M0 0 C1.49756836 -0.00193359 1.49756836 -0.00193359 3.02539062 -0.00390625 C4.07791016 -0.00003906 5.13042969 0.00382812 6.21484375 0.0078125 C7.75301758 0.00201172 7.75301758 0.00201172 9.32226562 -0.00390625 C15.02752916 0.00339415 20.5103598 0.27940316 26.15234375 1.1328125 C26.15234375 1.4628125 26.15234375 1.7928125 26.15234375 2.1328125 C16.25234375 2.1328125 6.35234375 2.1328125 -3.84765625 2.1328125 C-3.84765625 9.0628125 -3.84765625 15.9928125 -3.84765625 23.1328125 C-6.52998452 24.47397664 -8.66597884 24.30185271 -11.66015625 24.3203125 C-12.69785156 24.33449219 -13.73554687 24.34867188 -14.8046875 24.36328125 C-17.88536158 24.12995677 -20.06527217 23.43400136 -22.84765625 22.1328125 C-19.16365041 20.90177095 -15.93290649 21.22513998 -12.09765625 21.5703125 C-10.9271875 21.67214844 -9.75671875 21.77398437 -8.55078125 21.87890625 C-7.65875 21.96269531 -6.76671875 22.04648438 -5.84765625 22.1328125 C-5.85551147 21.18643921 -5.85551147 21.18643921 -5.86352539 20.22094727 C-5.88423451 17.37907903 -5.89729691 14.53722662 -5.91015625 11.6953125 C-5.91853516 10.70208984 -5.92691406 9.70886719 -5.93554688 8.68554688 C-5.94038086 7.26918945 -5.94038086 7.26918945 -5.9453125 5.82421875 C-5.95316772 4.51239624 -5.95316772 4.51239624 -5.96118164 3.17407227 C-5.74039282 -0.79585326 -3.42563967 0.0042581 0 0 Z " fill="#8491A7" transform="translate(129.84765625,125.8671875)"/>
<path d="M0 0 C1.65 0 3.3 0 5 0 C5.73632461 1.70693431 6.47151276 3.4143736 7.19921875 5.125 C7.85080097 6.65065593 8.51700382 8.17006128 9.1875 9.6875 C10 12 10 12 10 16 C9.01 15.67 8.02 15.34 7 15 C7 14.01 7 13.02 7 12 C4.69 12.33 2.38 12.66 0 13 C-0.33 13.99 -0.66 14.98 -1 16 C-1.99 16 -2.98 16 -4 16 C-3.27275406 10.47293087 -1.66554027 5.30039859 0 0 Z " fill="#1F345D" transform="translate(216,144)"/>
<path d="M0 0 C3.63 0 7.26 0 11 0 C11 0.99 11 1.98 11 3 C8.69 3 6.38 3 4 3 C4 3.99 4 4.98 4 6 C5.98 6 7.96 6 10 6 C10 6.99 10 7.98 10 9 C7.69 9 5.38 9 3 9 C3 10.65 3 12.3 3 14 C5.64 14 8.28 14 11 14 C11 14.99 11 15.98 11 17 C7.37 17 3.74 17 0 17 C0 11.39 0 5.78 0 0 Z " fill="#566784" transform="translate(182,144)"/>
<path d="M0 0 C1.43836751 0.11458693 2.87570966 0.24209116 4.3125 0.375 C5.51326172 0.47941406 5.51326172 0.47941406 6.73828125 0.5859375 C9 1 9 1 12 3 C12 3.66 12 4.32 12 5 C12.886875 5.226875 13.77375 5.45375 14.6875 5.6875 C18.43972229 6.7661676 22.09012185 8.07986922 25.75 9.4375 C26.85859375 9.84871094 27.9671875 10.25992188 29.109375 10.68359375 C31.73631559 11.8799167 33.18480791 12.80770814 35 15 C28.39315574 16.81688217 23.83930231 14.57265585 18.13671875 11.4140625 C16.07984207 10.21704913 14.03033957 9.00727756 11.98828125 7.78515625 C8.04354506 5.42862757 4.02919782 3.20791901 0 1 C0 0.67 0 0.34 0 0 Z " fill="#596685" transform="translate(43,197)"/>
<path d="M0 0 C5.63147648 0.40956193 9.84981495 1.58120443 14.921875 4.0625 C16.93890353 4.97243768 18.84197416 5.53339982 21 6 C21 6.66 21 7.32 21 8 C22.27875 8.309375 23.5575 8.61875 24.875 8.9375 C27.10101675 9.47605244 28.94739999 9.9737 31 11 C31 11.66 31 12.32 31 13 C31.7425 13.268125 32.485 13.53625 33.25 13.8125 C35.86636554 14.94229421 37.80187111 16.20893202 40 18 C36.51493273 19.24083714 36.51493273 19.24083714 34.24609375 18.1796875 C33.64925781 17.74914062 33.05242187 17.31859375 32.4375 16.875 C28.27198219 14.0587648 23.93558715 12.0866647 19.3203125 10.11328125 C17 9 17 9 15 7 C12.46411556 6.05972824 9.94970258 5.19206429 7.375 4.375 C6.66859375 4.14554688 5.9621875 3.91609375 5.234375 3.6796875 C3.49133055 3.11437579 1.74588584 2.55647456 0 2 C0 1.34 0 0.68 0 0 Z " fill="#495878" transform="translate(227,47)"/>
<path d="M0 0 C1.32 0 2.64 0 4 0 C4 5.28 4 10.56 4 16 C6.97 16 9.94 16 13 16 C13 16.66 13 17.32 13 18 C9.7 18 6.4 18 3 18 C2.34 15.36 1.68 12.72 1 10 C-1.64 10 -4.28 10 -7 10 C-7 10.99 -7 11.98 -7 13 C-4.69 13 -2.38 13 0 13 C0 13.33 0 13.66 0 14 C-2.64 14 -5.28 14 -8 14 C-8 12.35 -8 10.7 -8 9 C-5.69 9 -3.38 9 -1 9 C-1 8.01 -1 7.02 -1 6 C-2.98 6 -4.96 6 -7 6 C-7 5.01 -7 4.02 -7 3 C-4.69 3 -2.38 3 0 3 C0 2.01 0 1.02 0 0 Z " fill="#B5BEC9" transform="translate(193,144)"/>
<path d="M0 0 C4.41703167 -0.08079936 8.83259096 -0.14041087 13.25 -0.1875 C14.50425781 -0.21263672 15.75851563 -0.23777344 17.05078125 -0.26367188 C18.85869141 -0.27817383 18.85869141 -0.27817383 20.703125 -0.29296875 C22.36843262 -0.31653442 22.36843262 -0.31653442 24.06738281 -0.34057617 C27.29964043 0.0347984 28.63907032 0.82241911 31 3 C24.82760241 6.52509388 17.75112637 5.14912789 11 4 C10.67 3.01 10.34 2.02 10 1 C7.36 1.33 4.72 1.66 2 2 C1.67 8.27 1.34 14.54 1 21 C0.67 21 0.34 21 0 21 C0 14.07 0 7.14 0 0 Z " fill="#041C4F" transform="translate(127,128)"/>
<path d="M0 0 C0.99 0 1.98 0 3 0 C3 5.61 3 11.22 3 17 C6.63 17 10.26 17 14 17 C14.33 16.01 14.66 15.02 15 14 C15 15.32 15 16.64 15 18 C10.71 18 6.42 18 2 18 C1.34 16.68 0.68 15.36 0 14 C-3.56206661 13.18129815 -3.56206661 13.18129815 -7 13 C-7 12.01 -7 11.02 -7 10 C-5.02 10 -3.04 10 -1 10 C-1 8.68 -1 7.36 -1 6 C-3.31 6 -5.62 6 -8 6 C-8 5.01 -8 4.02 -8 3 C-5.36 3 -2.72 3 0 3 C0 2.01 0 1.02 0 0 Z " fill="#DDE1E7" transform="translate(179,144)"/>
<path d="M0 0 C0.66 0.33 1.32 0.66 2 1 C4.09821215 0.60061233 4.09821215 0.60061233 6 0 C5.319375 0.66 4.63875 1.32 3.9375 2 C-1.63159688 7.616696 -6.18447034 12.53884641 -9 20 C-9.53625 20.845625 -10.0725 21.69125 -10.625 22.5625 C-12.21453872 25.38031864 -12.62872209 27.80700997 -13 31 C-13.66 31 -14.32 31 -15 31 C-15.33 32.32 -15.66 33.64 -16 35 C-16.33 34.34 -16.66 33.68 -17 33 C-16.690625 32.29875 -16.38125 31.5975 -16.0625 30.875 C-14.7430539 27.93047493 -14.7430539 27.93047493 -15.3125 24.3125 C-15.45770112 18.35925425 -11.55419407 14.43776007 -8 10 C-7.25878906 9.05640625 -6.51757812 8.1128125 -5.75390625 7.140625 C-3.8549668 4.74410249 -1.93755927 2.36533209 0 0 Z " fill="#4F5B7A" transform="translate(22,81)"/>
<path d="M0 0 C6.8359375 -0.1953125 6.8359375 -0.1953125 9 0 C11 2 11 2 11 6 C10.34 6 9.68 6 9 6 C9 5.01 9 4.02 9 3 C7.02 3 5.04 3 3 3 C3 4.32 3 5.64 3 7 C4.65 7.33 6.3 7.66 8 8 C8 8.33 8 8.66 8 9 C6.35 9 4.7 9 3 9 C3 10.65 3 12.3 3 14 C4.98 13.67 6.96 13.34 9 13 C9.33 12.01 9.66 11.02 10 10 C10.66 10 11.32 10 12 10 C12 11.98 12 13.96 12 16 C8.04 16 4.08 16 0 16 C0 10.72 0 5.44 0 0 Z " fill="#182652" transform="translate(197,144)"/>
<path d="M0 0 C-2.57123859 3.14662065 -5.2996484 3.95435023 -9.125 5.125 C-12.85500338 6.03289987 -12.85500338 6.03289987 -16 8 C-18.5649686 8.43193243 -21.10869381 8.80065059 -23.6875 9.125 C-24.75000977 9.27388672 -24.75000977 9.27388672 -25.83398438 9.42578125 C-30.12348743 9.97236613 -33.72655066 9.95563749 -38 9 C-35.19364394 6.19364394 -32.98026985 6.51478827 -29.0625 6.125 C-23.1199461 5.45765819 -17.9281684 4.19776422 -12.3671875 1.90234375 C-8.22432274 0.32313293 -4.41360621 -0.12610303 0 0 Z " fill="#485879" transform="translate(236,212)"/>
<path d="M0 0 C3.3 0.33 6.6 0.66 10 1 C9.67 2.32 9.34 3.64 9 5 C9.66 5 10.32 5 11 5 C11.33 3.35 11.66 1.7 12 0 C12.66 0 13.32 0 14 0 C14 1.65 14 3.3 14 5 C14.66 5 15.32 5 16 5 C16.33 3.35 16.66 1.7 17 0 C19.31 0 21.62 0 24 0 C24 0.66 24 1.32 24 2 C22.35 2 20.7 2 19 2 C18.67 3.65 18.34 5.3 18 7 C14.04 7 10.08 7 6 7 C6 6.01 6 5.02 6 4 C5.01 4 4.02 4 3 4 C3 3.34 3 2.68 3 2 C2.34 2 1.68 2 1 2 C1 3.65 1 5.3 1 7 C0.01 6.67 -0.98 6.34 -2 6 C-1.49396008 3.83125748 -1.00016187 2.00032373 0 0 Z " fill="#818DA2" transform="translate(228,195)"/>
<path d="M0 0 C1.58367747 0.14204741 3.16693318 0.28880153 4.75 0.4375 C5.63171875 0.51871094 6.5134375 0.59992188 7.421875 0.68359375 C10 1 10 1 11.78198242 1.48510742 C22.21969853 3.90812814 33.80018868 3.15787787 44.4675293 3.13037109 C46.93088961 3.12501437 49.39406707 3.13035033 51.85742188 3.13671875 C61.61537241 3.14037739 71.27295157 2.79853656 81 2 C74.99525445 6.0031637 66.95251743 5.14871688 59.9375 5.1328125 C58.98794434 5.13376923 58.03838867 5.13472595 57.06005859 5.13571167 C55.05647719 5.13638922 53.05289354 5.1345647 51.04931641 5.13037109 C48.03673144 5.1250647 45.02429884 5.13030586 42.01171875 5.13671875 C10.10606002 5.15070322 10.10606002 5.15070322 0 1 C0 0.67 0 0.34 0 0 Z " fill="#ACB6C5" transform="translate(110,223)"/>
<path d="M0 0 C3.63 0 7.26 0 11 0 C9.88183161 5.59084195 9.88183161 5.59084195 7.5 8.125 C4.8549648 10.79530799 4.8549648 10.79530799 4 14 C6.31 14 8.62 14 11 14 C11 14.66 11 15.32 11 16 C7.37 16 3.74 16 0 16 C0 9.86957228 1.68685844 8.39575376 5.75 4.1875 C6.1625 3.795625 6.575 3.40375 7 3 C4.69 3 2.38 3 0 3 C0 2.01 0 1.02 0 0 Z " fill="#404D72" transform="translate(153,144)"/>
<path d="M0 0 C1.76184597 3.52369194 0.03590353 7.34457031 -1 11 C-1.8993004 13.40104476 -2.91165185 15.67489259 -4 18 C-4.66 18 -5.32 18 -6 18 C-6.28875 19.051875 -6.5775 20.10375 -6.875 21.1875 C-7.77225193 24.22818711 -8.76423419 27.08712344 -10 30 C-10.66 30 -11.32 30 -12 30 C-12 29.01 -12 28.02 -12 27 C-12.66 27.33 -13.32 27.66 -14 28 C-13.00801577 25.10671266 -12.07252692 23.08422482 -10.0625 20.75 C-6.53008604 16.04011472 -5.20727091 10.86543822 -4.5625 5.0625 C-4 2 -4 2 -1.9375 0.5625 C-1.298125 0.376875 -0.65875 0.19125 0 0 Z " fill="#63718D" transform="translate(309,140)"/>
<path d="M0 0 C-2.97 0.66 -5.94 1.32 -9 2 C-6.74956078 1.88317392 -4.4996584 1.7560042 -2.25 1.625 C-0.99703125 1.55539063 0.2559375 1.48578125 1.546875 1.4140625 C4.90861449 1.16753494 8.12912592 0.60741694 11.4375 -0.03125 C19.36373493 -1.40478078 27.23536595 -1.2173626 35.25 -1.125 C36.78515035 -1.11494089 38.32030715 -1.10582027 39.85546875 -1.09765625 C43.57044927 -1.07589619 47.28518161 -1.04153134 51 -1 C51 -0.67 51 -0.34 51 0 C50.12375977 0.01981934 49.24751953 0.03963867 48.34472656 0.06005859 C45.03443082 0.13904139 41.72451173 0.2257524 38.41455078 0.31738281 C36.99307816 0.35522034 35.57152439 0.39014384 34.14990234 0.421875 C26.21403166 0.60109015 18.53742979 1.07944695 10.71191406 2.53662109 C6.57022145 3.24430318 2.44302063 3.45643636 -1.75 3.625 C-2.53503906 3.66367187 -3.32007812 3.70234375 -4.12890625 3.7421875 C-9.0903433 3.97256932 -14.03354522 4.03401681 -19 4 C-18.67 3.34 -18.34 2.68 -18 2 C-14.98046875 1.11328125 -14.98046875 1.11328125 -11.1875 0.3125 C-9.94355469 0.04050781 -8.69960937 -0.23148438 -7.41796875 -0.51171875 C-4 -1 -4 -1 0 0 Z " fill="#828FA5" transform="translate(118,38)"/>
<path d="M0 0 C0 0.66 0 1.32 0 2 C-13.08619135 4.91575616 -25.61985191 5.36404756 -39 5 C-39 4.67 -39 4.34 -39 4 C-26.18221382 1.39768488 -13.10270837 -0.50939255 0 0 Z " fill="#3C4E71" transform="translate(204,221)"/>
<path d="M0 0 C3.3 0 6.6 0 10 0 C10 0.66 10 1.32 10 2 C7.69 2 5.38 2 3 2 C3 3.65 3 5.3 3 7 C4.98 7 6.96 7 9 7 C9 7.66 9 8.32 9 9 C7.02 9 5.04 9 3 9 C3 10.65 3 12.3 3 14 C5.31 14 7.62 14 10 14 C10 14.66 10 15.32 10 16 C6.7 16 3.4 16 0 16 C0 10.72 0 5.44 0 0 Z " fill="#223660" transform="translate(168,144)"/>
<path d="M0 0 C3.83923876 1.56413431 6.09936232 4.09936232 9 7 C9.825 7.495 10.65 7.99 11.5 8.5 C14.48954379 10.29372628 16.53464895 12.53464895 19 15 C21.61668286 17.06991331 24.29527401 19.04695965 27 21 C25 22 25 22 22.6875 21.3125 C19.71975465 19.86313599 17.55470743 18.09292358 15 16 C14.09121094 15.27941406 13.18242188 14.55882812 12.24609375 13.81640625 C11.31925781 13.07261719 10.39242188 12.32882813 9.4375 11.5625 C8.04337891 10.45068359 8.04337891 10.45068359 6.62109375 9.31640625 C4.04886573 7.04318536 1.98471845 4.79728553 0 2 C0 1.34 0 0.68 0 0 Z " fill="#424F72" transform="translate(20,176)"/>
<path d="M0 0 C8.58 0 17.16 0 26 0 C26 0.33 26 0.66 26 1 C28.475 1.495 28.475 1.495 31 2 C31 2.33 31 2.66 31 3 C18.46 3 5.92 3 -7 3 C-7 2.67 -7 2.34 -7 2 C-4.69 2 -2.38 2 0 2 C0 1.34 0 0.68 0 0 Z " fill="#586B8A" transform="translate(145,224)"/>
<path d="M0 0 C1.43739513 -0.02712066 2.87493863 -0.04645067 4.3125 -0.0625 C5.51326172 -0.07990234 5.51326172 -0.07990234 6.73828125 -0.09765625 C9 0 9 0 12 1 C13.98968251 1.21676158 15.98435019 1.38909879 17.98046875 1.53515625 C19.72553711 1.66567383 19.72553711 1.66567383 21.50585938 1.79882812 C22.72080078 1.88583984 23.93574219 1.97285156 25.1875 2.0625 C26.41404297 2.15337891 27.64058594 2.24425781 28.90429688 2.33789062 C31.93596295 2.56202158 34.96784637 2.7825812 38 3 C38 3.66 38 4.32 38 5 C25.49924601 5.35554945 13.10686892 5.60559758 1 2 C0.67 1.34 0.34 0.68 0 0 Z " fill="#394B70" transform="translate(107,221)"/>
<path d="M0 0 C-3.46591862 3.46591862 -8.44593626 4.17438257 -13.0625 5.5625 C-14.07505859 5.87896484 -15.08761719 6.19542969 -16.13085938 6.52148438 C-22.12514848 8.34180041 -27.75165533 9.52535987 -34 10 C-33 8 -33 8 -30.625 7.125 C-29.42875 6.75375 -28.2325 6.3825 -27 6 C-25.24904532 5.33584478 -23.49913508 4.66893268 -21.75 4 C-14.6458396 1.40963947 -7.61401425 -0.40073759 0 0 Z " fill="#435576" transform="translate(107,41)"/>
<path d="M0 0 C0.33 0 0.66 0 1 0 C1.33 2.31 1.66 4.62 2 7 C5.63 7 9.26 7 13 7 C12.1875 9.9375 12.1875 9.9375 11 13 C8 14 8 14 5 13 C4.67 12.01 4.34 11.02 4 10 C3.67 10.99 3.34 11.98 3 13 C1.35 12.67 -0.3 12.34 -2 12 C-1.34 8.04 -0.68 4.08 0 0 Z " fill="#9AA5B6" transform="translate(158,188)"/>
<path d="M0 0 C0.66 0 1.32 0 2 0 C1.38094598 4.01789868 0.53018317 7.8823512 -0.5 11.8125 C-2.40024785 19.82134948 -2.71542735 27.80627018 -3 36 C-3.33 36 -3.66 36 -4 36 C-5.02996406 31.74830835 -5.19159476 27.60273304 -5.1875 23.25 C-5.18814453 22.54423828 -5.18878906 21.83847656 -5.18945312 21.11132812 C-5.1356303 15.78286843 -4.45902085 11.10657297 -3 6 C-2.34 6 -1.68 6 -1 6 C-0.67 4.02 -0.34 2.04 0 0 Z " fill="#3D4E71" transform="translate(6,105)"/>
<path d="M0 0 C0.66 0 1.32 0 2 0 C2.2521379 4.2863443 2.35696696 7.97109522 0.9375 12.0625 C-1 14 -1 14 -4.6875 14.3125 C-5.780625 14.209375 -6.87375 14.10625 -8 14 C-8 11.03 -8 8.06 -8 5 C-6.35 4.67 -4.7 4.34 -3 4 C-3 6.31 -3 8.62 -3 11 C-0.87953208 7.46588679 -0.46800711 4.05606165 0 0 Z " fill="#8893A7" transform="translate(224,187)"/>
<path d="M0 0 C-1.37671875 1.06927734 -1.37671875 1.06927734 -2.78125 2.16015625 C-9.34157222 7.2738479 -15.84369727 12.39814689 -22 18 C-22.66 17.67 -23.32 17.34 -24 17 C-22.46029107 13.03817586 -19.98032363 11.10217726 -16.6875 8.5 C-15.74261719 7.7471875 -14.79773437 6.994375 -13.82421875 6.21875 C-12.42623047 5.12046875 -12.42623047 5.12046875 -11 4 C-10.1028125 3.26394531 -9.205625 2.52789062 -8.28125 1.76953125 C-5.37491478 -0.48486919 -3.41866792 -1.70933396 0 0 Z " fill="#3C476B" transform="translate(46,66)"/>
<path d="M0 0 C4.54805635 -0.17835515 7.8794254 0.00214565 12 2 C11.67 2.66 11.34 3.32 11 4 C10.01 3.67 9.02 3.34 8 3 C8 5.97 8 8.94 8 12 C7.67 12 7.34 12 7 12 C7 9.69 7 7.38 7 5 C6.34 5 5.68 5 5 5 C5 7.31 5 9.62 5 12 C4.01 12 3.02 12 2 12 C2 9.36 2 6.72 2 4 C1.34 4 0.68 4 0 4 C0 2.68 0 1.36 0 0 Z " fill="#CCD3D9" transform="translate(218,125)"/>
<path d="M0 0 C7.26 0 14.52 0 22 0 C22 0.66 22 1.32 22 2 C15.4 1.67 8.8 1.34 2 1 C2 4.3 2 7.6 2 11 C3.98 10.67 5.96 10.34 8 10 C7 13 7 13 4.9375 14.1875 C4.298125 14.455625 3.65875 14.72375 3 15 C3 14.34 3 13.68 3 13 C2.01 13 1.02 13 0 13 C0 8.71 0 4.42 0 0 Z " fill="#949FB2" transform="translate(132,134)"/>
<path d="M0 0 C1.98 0 3.96 0 6 0 C6 0.99 6 1.98 6 3 C7.32 3.33 8.64 3.66 10 4 C10.33 6.31 10.66 8.62 11 11 C10.01 11.66 9.02 12.32 8 13 C8 11.68 8 10.36 8 9 C7.34 9 6.68 9 6 9 C6 8.01 6 7.02 6 6 C5.34 6 4.68 6 4 6 C4 8.31 4 10.62 4 13 C3.34 13 2.68 13 2 13 C2.020625 11.88625 2.04125 10.7725 2.0625 9.625 C2.26380718 6.16784079 2.26380718 6.16784079 1 4 C1.66 4 2.32 4 3 4 C3 3.34 3 2.68 3 2 C2.01 2 1.02 2 0 2 C0 1.34 0 0.68 0 0 Z " fill="#B1B9C5" transform="translate(144,187)"/>
<path d="M0 0 C8.91 0 17.82 0 27 0 C27 1.32 27 2.64 27 4 C24.36 4 21.72 4 19 4 C19 3.67 19 3.34 19 3 C21.31 3 23.62 3 26 3 C26 2.34 26 1.68 26 1 C22.7 1 19.4 1 16 1 C16 6.28 16 11.56 16 17 C15.67 17 15.34 17 15 17 C14.67 12.38 14.34 7.76 14 3 C13.67 3.99 13.34 4.98 13 6 C12.34 5.67 11.68 5.34 11 5 C11.33 3.68 11.66 2.36 12 1 C8.37 1 4.74 1 1 1 C0.67 1.99 0.34 2.98 0 4 C0 2.68 0 1.36 0 0 Z " fill="#A4AEBE" transform="translate(152,143)"/>
<path d="M0 0 C0 0.99 0 1.98 0 3 C-0.33 3.33 -0.66 3.66 -1 4 C-1.15655027 5.48638992 -1.25066943 6.97949127 -1.31640625 8.47265625 C-1.35830078 9.37177734 -1.40019531 10.27089844 -1.44335938 11.19726562 C-1.48267578 12.14279297 -1.52199219 13.08832031 -1.5625 14.0625 C-1.60568359 15.01189453 -1.64886719 15.96128906 -1.69335938 16.93945312 C-1.79979132 19.29278176 -1.90043154 21.64637099 -2 24 C2.29 24 6.58 24 11 24 C11 24.33 11 24.66 11 25 C6.05 25 1.1 25 -4 25 C-4.10770003 21.39504056 -4.18717372 17.79327967 -4.25 14.1875 C-4.28351563 13.16333984 -4.31703125 12.13917969 -4.3515625 11.08398438 C-4.36445313 10.10107422 -4.37734375 9.11816406 -4.390625 8.10546875 C-4.41157227 7.19949951 -4.43251953 6.29353027 -4.45410156 5.36010742 C-4 3 -4 3 -1.97558594 1.1809082 C-0.9976709 0.59635864 -0.9976709 0.59635864 0 0 Z " fill="#CED4DB" transform="translate(137,147)"/>
<path d="M0 0 C2.64 0.66 5.28 1.32 8 2 C8 2.66 8 3.32 8 4 C8.639375 4.103125 9.27875 4.20625 9.9375 4.3125 C10.618125 4.539375 11.29875 4.76625 12 5 C12.33 5.99 12.66 6.98 13 8 C12.05253906 7.69255859 12.05253906 7.69255859 11.0859375 7.37890625 C3.40532372 5.06586838 -4.0039578 4.33851857 -12 4 C-9.1004339 2.34123921 -7.08364791 1.7638784 -3.75 1.875 C-1.89375 1.936875 -1.89375 1.936875 0 2 C0 1.34 0 0.68 0 0 Z " fill="#243762" transform="translate(125,62)"/>
<path d="M0 0 C0.66 0 1.32 0 2 0 C2 1.98 2 3.96 2 6 C4.31 6 6.62 6 9 6 C9 6.66 9 7.32 9 8 C6.69 8 4.38 8 2 8 C2 9.65 2 11.3 2 13 C4.64 13 7.28 13 10 13 C10 13.66 10 14.32 10 15 C6.7 15 3.4 15 0 15 C0 10.05 0 5.1 0 0 Z " fill="#1F3058" transform="translate(183,145)"/>
<path d="M0 0 C-1.98 0.66 -3.96 1.32 -6 2 C-5.01 2.66 -4.02 3.32 -3 4 C-3.63808594 4.19335938 -4.27617188 4.38671875 -4.93359375 4.5859375 C-5.75988281 4.84632812 -6.58617188 5.10671875 -7.4375 5.375 C-8.67306641 5.75785156 -8.67306641 5.75785156 -9.93359375 6.1484375 C-12.17798016 6.80882227 -12.17798016 6.80882227 -13 9 C-15.86724686 8.42655063 -16.8614515 8.1385485 -19 6 C-5.36 -2.68 -5.36 -2.68 0 0 Z " fill="#64718E" transform="translate(80,48)"/>
<path d="M0 0 C0 1.32 0 2.64 0 4 C-0.66 4 -1.32 4 -2 4 C-2 4.99 -2 5.98 -2 7 C-2.66 7 -3.32 7 -4 7 C-4.33 6.01 -4.66 5.02 -5 4 C-5.66 4 -6.32 4 -7 4 C-7 4.99 -7 5.98 -7 7 C-7.66 7 -8.32 7 -9 7 C-9 6.01 -9 5.02 -9 4 C-9.99 4 -10.98 4 -12 4 C-11.67 3.01 -11.34 2.02 -11 1 C-7.50970582 -0.47666292 -3.72563614 -0.07164685 0 0 Z " fill="#8490A3" transform="translate(196,195)"/>
<path d="M0 0 C1.06671952 3.20015856 0.94845472 4.88544294 0.5625 8.1875 C0.46066406 9.08855469 0.35882813 9.98960937 0.25390625 10.91796875 C0.17011719 11.60503906 0.08632812 12.29210937 0 13 C-2.64 12.67 -5.28 12.34 -8 12 C-6.68 9.36 -5.36 6.72 -4 4 C-3.01 4 -2.02 4 -1 4 C-0.67 2.68 -0.34 1.36 0 0 Z " fill="#F0F2F4" transform="translate(166,145)"/>
<path d="M0 0 C1.45792884 -0.05399736 2.91642712 -0.09279177 4.375 -0.125 C5.18710938 -0.14820313 5.99921875 -0.17140625 6.8359375 -0.1953125 C9 0 9 0 11 2 C11 3.32 11 4.64 11 6 C10.34 6 9.68 6 9 6 C9 5.01 9 4.02 9 3 C7.02 3 5.04 3 3 3 C3 4.32 3 5.64 3 7 C4.65 7.33 6.3 7.66 8 8 C8 8.33 8 8.66 8 9 C6.35 9 4.7 9 3 9 C3 10.65 3 12.3 3 14 C2.67 14 2.34 14 2 14 C2 9.71 2 5.42 2 1 C1.34 0.67 0.68 0.34 0 0 Z " fill="#33466D" transform="translate(197,144)"/>
<path d="M0 0 C1.32 0 2.64 0 4 0 C4.73632461 1.70693431 5.47151276 3.4143736 6.19921875 5.125 C6.85080097 6.65065593 7.51700382 8.17006128 8.1875 9.6875 C9 12 9 12 9 16 C8.01 15.67 7.02 15.34 6 15 C5.04501962 12.45338565 4.47470072 9.89398398 3.84375 7.25 C3.5653125 6.5075 3.286875 5.765 3 5 C2.01 4.67 1.02 4.34 0 4 C0 2.68 0 1.36 0 0 Z " fill="#24355E" transform="translate(217,144)"/>
<path d="M0 0 C1.4540625 0.0309375 1.4540625 0.0309375 2.9375 0.0625 C2.9375 0.7225 2.9375 1.3825 2.9375 2.0625 C3.9275 1.7325 4.9175 1.4025 5.9375 1.0625 C5.9375 2.7125 5.9375 4.3625 5.9375 6.0625 C4.9475 5.7325 3.9575 5.4025 2.9375 5.0625 C2.6075 5.7225 2.2775 6.3825 1.9375 7.0625 C1.2775 7.0625 0.6175 7.0625 -0.0625 7.0625 C-0.3925 5.7425 -0.7225 4.4225 -1.0625 3.0625 C-1.7225 4.3825 -2.3825 5.7025 -3.0625 7.0625 C-3.7225 7.0625 -4.3825 7.0625 -5.0625 7.0625 C-4.02286585 0.0820993 -4.02286585 0.0820993 0 0 Z " fill="#6B7A93" transform="translate(176.0625,194.9375)"/>
<path d="M0 0 C1.98 0.66 3.96 1.32 6 2 C6 2.66 6 3.32 6 4 C6.7425 4.268125 7.485 4.53625 8.25 4.8125 C10.86636554 5.94229421 12.80187111 7.20893202 15 9 C13.24609375 9.64453125 13.24609375 9.64453125 11 10 C9.03515625 9.07421875 9.03515625 9.07421875 7.0625 7.6875 C4.11834841 5.70638865 1.37859023 4.16139039 -2 3 C-1.34 2.01 -0.68 1.02 0 0 Z " fill="#4D5B7C" transform="translate(252,56)"/>
<path d="M0 0 C1.09248047 0.05317383 1.09248047 0.05317383 2.20703125 0.10742188 C7.63077278 0.44327278 7.63077278 0.44327278 9.875 2.6875 C6.77091193 2.74557043 3.6669636 2.78111914 0.5625 2.8125 C-0.75911133 2.83763672 -0.75911133 2.83763672 -2.10742188 2.86328125 C-2.95498047 2.86972656 -3.80253906 2.87617187 -4.67578125 2.8828125 C-5.45606689 2.89328613 -6.23635254 2.90375977 -7.0402832 2.91455078 C-9.125 2.6875 -9.125 2.6875 -12.125 0.6875 C-8.12978854 -0.70350294 -4.14436705 -0.27060715 0 0 Z " fill="#3C4F73" transform="translate(181.125,36.3125)"/>
<path d="M0 0 C-0.33 0.66 -0.66 1.32 -1 2 C-3.58513234 2.50987039 -6.07692632 2.88921479 -8.6875 3.1875 C-9.39583984 3.28224609 -10.10417969 3.37699219 -10.83398438 3.47460938 C-15.11287529 3.99218528 -18.7433847 3.9451697 -23 3 C-18.00638422 -1.99361578 -6.65528894 -0.11387377 0 0 Z " fill="#606F8B" transform="translate(221,218)"/>
<path d="M0 0 C-2.54112232 0.33801152 -5.08276746 0.67053379 -7.625 1 C-8.33785156 1.09539063 -9.05070312 1.19078125 -9.78515625 1.2890625 C-13.88821609 1.81606101 -17.85245742 2.10466984 -22 2 C-21 0 -21 0 -19.21484375 -0.6328125 C-6.1956234 -3.44657196 -6.1956234 -3.44657196 0 0 Z " fill="#33446A" transform="translate(130,39)"/>
<path d="M0 0 C4.78908556 1.59636185 6.6914169 5.66792991 9 10 C9.69323868 12.44855456 9.89102326 14.43904668 10 17 C7.23308263 14.4799768 5.32744559 11.64280821 3.3125 8.5 C2.68988281 7.5409375 2.06726563 6.581875 1.42578125 5.59375 C0 3 0 3 0 0 Z " fill="#364269" transform="translate(293,89)"/>
<path d="M0 0 C5.19644079 1.59890486 10.06612142 3.74138003 15 6 C11.1496895 8.56687367 9.41430237 7.83288724 5 7 C4.67 5.35 4.34 3.7 4 2 C2.68 1.67 1.36 1.34 0 1 C0 0.67 0 0.34 0 0 Z " fill="#697692" transform="translate(63,205)"/>
<path d="M0 0 C6.43681228 0.51085812 11.95942424 1.72942897 18 4 C18 4.66 18 5.32 18 6 C11.18012971 5.56699236 6.08356979 4.09212176 0 1 C0 0.67 0 0.34 0 0 Z " fill="#37486B" transform="translate(75,212)"/>
<path d="M0 0 C0.33 0.66 0.66 1.32 1 2 C1.99 2 2.98 2 4 2 C4 2.99 4 3.98 4 5 C4.66 5 5.32 5 6 5 C6 4.01 6 3.02 6 2 C6.99 1.67 7.98 1.34 9 1 C9 2.32 9 3.64 9 5 C9.66 5 10.32 5 11 5 C11.33 4.01 11.66 3.02 12 2 C12 3.32 12 4.64 12 6 C7.38 6 2.76 6 -2 6 C-1.34 5.67 -0.68 5.34 0 5 C0 3.35 0 1.7 0 0 Z " fill="#CED5DC" transform="translate(183,197)"/>
<path d="M0 0 C0.66 0.33 1.32 0.66 2 1 C0.42398147 2.79858604 -1.16017785 4.58868298 -2.75 6.375 C-3.41515625 7.13683594 -3.41515625 7.13683594 -4.09375 7.9140625 C-6.5142442 10.61932073 -8.58718389 12.67633768 -12 14 C-9.3129633 7.95416742 -5.07578221 4.03755403 0 0 Z " fill="#B7C0CD" transform="translate(96,72)"/>
<path d="M0 0 C0.66 0.33 1.32 0.66 2 1 C2 2.32 2 3.64 2 5 C3.65 5 5.3 5 7 5 C7.33 5.66 7.66 6.32 8 7 C6.02 7 4.04 7 2 7 C1.34 8.98 0.68 10.96 0 13 C-0.99 13 -1.98 13 -3 13 C-2.690625 12.34 -2.38125 11.68 -2.0625 11 C-0.75039745 7.29523985 -0.39735865 3.90736009 0 0 Z " fill="#D3D9E0" transform="translate(226,188)"/>
<path d="M0 0 C-0.33 1.65 -0.66 3.3 -1 5 C-3.31 5.33 -5.62 5.66 -8 6 C-7.67 5.34 -7.34 4.68 -7 4 C-8.65 4 -10.3 4 -12 4 C-11 2 -11 2 -9.00390625 1.11328125 C-7.79541016 0.71689453 -7.79541016 0.71689453 -6.5625 0.3125 C-5.75941406 0.04050781 -4.95632812 -0.23148438 -4.12890625 -0.51171875 C-2 -1 -2 -1 0 0 Z " fill="#8C97AC" transform="translate(241,209)"/>
<path d="M0 0 C0.66 0 1.32 0 2 0 C2.054348 2.0622048 2.09294961 4.12482816 2.125 6.1875 C2.14820313 7.33605469 2.17140625 8.48460937 2.1953125 9.66796875 C2.00484152 12.91740372 1.39360127 15.08660521 0 18 C-0.33 18 -0.66 18 -1 18 C-1.09706112 11.88514973 -0.77040851 6.06696699 0 0 Z " fill="#223A62" transform="translate(308,127)"/>
<path d="M0 0 C1.98 0 3.96 0 6 0 C5.67 3.3 5.34 6.6 5 10 C4.01 10 3.02 10 2 10 C2 7.36 2 4.72 2 2 C1.34 2 0.68 2 0 2 C0 1.34 0 0.68 0 0 Z " fill="#6F7D95" transform="translate(218,127)"/>
<path d="M0 0 C0.99 0 1.98 0 3 0 C2.1875 2.9375 2.1875 2.9375 1 6 C-2 7 -2 7 -5 6 C-5 4.35 -5 2.7 -5 1 C-4.01 1 -3.02 1 -2 1 C-2 1.66 -2 2.32 -2 3 C-1.34 3 -0.68 3 0 3 C0 2.01 0 1.02 0 0 Z " fill="#77839B" transform="translate(168,195)"/>
<path d="M0 0 C3.70503641 0.60334309 5.85968148 2.22474237 8.75 4.5625 C9.94882812 5.52349609 9.94882812 5.52349609 11.171875 6.50390625 C12.07679687 7.24447266 12.07679687 7.24447266 13 8 C11 9 11 9 8.6875 8.3125 C5.70942113 6.85808939 3.44176387 5.23828355 1 3 C0.67 2.01 0.34 1.02 0 0 Z " fill="#3A476B" transform="translate(34,189)"/>
<path d="M0 0 C0.33 0 0.66 0 1 0 C1 2.97 1 5.94 1 9 C2.98 9 4.96 9 7 9 C7 9.33 7 9.66 7 10 C3.37 10 -0.26 10 -4 10 C-2.99806563 6.20696275 -2.18975773 3.28463659 0 0 Z " fill="#C1C7D2" transform="translate(215,192)"/>
<path d="M0 0 C2 1 2 1 2.88671875 3.14453125 C3.28310547 4.46517578 3.28310547 4.46517578 3.6875 5.8125 C3.95949219 6.68519531 4.23148437 7.55789062 4.51171875 8.45703125 C5.01319861 11.06873834 4.86233704 12.51716384 4 15 C0.95842058 9.77228537 -0.50610724 6.07328688 0 0 Z " fill="#37476B" transform="translate(3,142)"/>
<path d="M0 0 C0 0.66 0 1.32 0 2 C0.66 2 1.32 2 2 2 C2 2.99 2 3.98 2 5 C-0.31 5 -2.62 5 -5 5 C-5.33 3.35 -5.66 1.7 -6 0 C-3.50907189 -1.24546405 -2.58919267 -0.7767578 0 0 Z " fill="#041E50" transform="translate(165,133)"/>
<path d="M0 0 C0.33 0.66 0.66 1.32 1 2 C0.54625 2.7425 0.0925 3.485 -0.375 4.25 C-2.14037509 7.23755784 -2.60249874 9.58148917 -3 13 C-3.66 13 -4.32 13 -5 13 C-5.33 14.32 -5.66 15.64 -6 17 C-6.33 16.34 -6.66 15.68 -7 15 C-6.690625 14.29875 -6.38125 13.5975 -6.0625 12.875 C-4.65569312 9.06834608 -4.86287265 6.04525681 -5 2 C-4.34 1.67 -3.68 1.34 -3 1 C-2.67 1.99 -2.34 2.98 -2 4 C-1.34 2.68 -0.68 1.36 0 0 Z " fill="#939FB2" transform="translate(12,99)"/>
<path d="M0 0 C-3.57469625 3.57469625 -8.02894421 3.96917283 -12.9375 4.125 C-13.948125 4.08375 -14.95875 4.0425 -16 4 C-16 3.34 -16 2.68 -16 2 C-10.61972975 0.80911014 -5.54708616 -0.2919519 0 0 Z " fill="#334369" transform="translate(107,41)"/>
<path d="M0 0 C7.31110994 -0.3689719 13.21256822 0.18447274 20 3 C20 3.33 20 3.66 20 4 C6.3667426 3.22095672 6.3667426 3.22095672 0 1 C0 0.67 0 0.34 0 0 Z " fill="#273A60" transform="translate(192,39)"/>
<path d="M0 0 C3.0625 0.125 3.0625 0.125 5.0625 1.125 C4.7325 2.775 4.4025 4.425 4.0625 6.125 C3.4025 6.125 2.7425 6.125 2.0625 6.125 C2.0625 4.475 2.0625 2.825 2.0625 1.125 C1.4025 1.125 0.7425 1.125 0.0625 1.125 C-0.2675 2.775 -0.5975 4.425 -0.9375 6.125 C-1.5975 6.125 -2.2575 6.125 -2.9375 6.125 C-3.31968767 4.46885343 -3.65145102 2.80042976 -3.9375 1.125 C-2.9375 0.125 -2.9375 0.125 0 0 Z " fill="#C7CED7" transform="translate(239.9375,193.875)"/>
<path d="M0 0 C2.97 0 5.94 0 9 0 C9 1.65 9 3.3 9 5 C8.01 5.495 8.01 5.495 7 6 C7 5.01 7 4.02 7 3 C4.69 3 2.38 3 0 3 C0 2.01 0 1.02 0 0 Z " fill="#F1F2F5" transform="translate(186,147)"/>
<path d="M0 0 C3.63 0 7.26 0 11 0 C10.67 1.32 10.34 2.64 10 4 C10 3.01 10 2.02 10 1 C9.34 1 8.68 1 8 1 C7.67 2.32 7.34 3.64 7 5 C7 4.34 7 3.68 7 3 C4.69 3 2.38 3 0 3 C0 2.01 0 1.02 0 0 Z " fill="#394D71" transform="translate(153,144)"/>
<path d="M0 0 C1.5778125 0.1546875 1.5778125 0.1546875 3.1875 0.3125 C3.1875 1.3025 3.1875 2.2925 3.1875 3.3125 C1.6096875 3.5290625 1.6096875 3.5290625 0 3.75 C-2.96710549 4.18776966 -5.88044366 4.69054866 -8.8125 5.3125 C-5.88314862 1.76177106 -4.6956049 0.38488565 0 0 Z " fill="#263661" transform="translate(165.8125,163.6875)"/>
<path d="M0 0 C0.66 0.33 1.32 0.66 2 1 C1.49339844 1.68835938 1.49339844 1.68835938 0.9765625 2.390625 C-2.36308951 6.98192426 -2.36308951 6.98192426 -5 12 C-5.66 11.34 -6.32 10.68 -7 10 C-4.14285714 2.42857143 -4.14285714 2.42857143 0 0 Z " fill="#3E4C6F" transform="translate(15,92)"/>
<path d="M0 0 C6.06892629 -0.25287193 11.16200408 0.30167391 17 2 C17 2.33 17 2.66 17 3 C10.90218999 3.22084624 5.78357065 3.01167675 0 1 C0 0.67 0 0.34 0 0 Z " fill="#2C3F65" transform="translate(107,221)"/>
<path d="M0 0 C0.66 0 1.32 0 2 0 C2.46882399 8.12628256 2.46882399 8.12628256 0.625 11.5625 C-1 13 -1 13 -3 13 C-2.690625 12.154375 -2.38125 11.30875 -2.0625 10.4375 C-0.98461179 6.9502146 -0.43418696 3.61822465 0 0 Z " fill="#727E95" transform="translate(224,187)"/>
<path d="M0 0 C-0.66 2.64 -1.32 5.28 -2 8 C-1.01 8 -0.02 8 1 8 C1 8.66 1 9.32 1 10 C-0.65 10 -2.3 10 -4 10 C-5.10348268 6.68955197 -4.99444068 4.34493684 -4 1 C-2 0 -2 0 0 0 Z " fill="#CDD3DB" transform="translate(214,152)"/>
<path d="M0 0 C1.98 0 3.96 0 6 0 C6 1.65 6 3.3 6 5 C4.02 5 2.04 5 0 5 C0 3.35 0 1.7 0 0 Z " fill="#C8D0DB" transform="translate(200,153)"/>
<path d="M0 0 C0.33 1.32 0.66 2.64 1 4 C2.32 4.33 3.64 4.66 5 5 C5 6.65 5 8.3 5 10 C3.68 10 2.36 10 1 10 C-1.42857143 3.71428571 -1.42857143 3.71428571 0 0 Z " fill="#8994AA" transform="translate(216,144)"/>
<path d="M0 0 C6.7857936 0.54863863 13.35009036 1.54267938 20 3 C20 3.33 20 3.66 20 4 C12.68889006 4.3689719 6.78743178 3.81552726 0 1 C0 0.67 0 0.34 0 0 Z " fill="#B8C0CD" transform="translate(110,223)"/>
<path d="M0 0 C-0.33 0.66 -0.66 1.32 -1 2 C-8.64288227 4.38056989 -8.64288227 4.38056989 -13 3 C-8.50235477 -1.63819664 -5.96030685 -1.2122658 0 0 Z " fill="#616E8D" transform="translate(251,207)"/>
<path d="M0 0 C0.66 0 1.32 0 2 0 C2.05437607 1.58294782 2.09296271 3.16644256 2.125 4.75 C2.14820313 5.63171875 2.17140625 6.5134375 2.1953125 7.421875 C1.99139502 10.1135858 1.36551721 11.69904974 0 14 C-0.66 14 -1.32 14 -2 14 C-1.34 9.38 -0.68 4.76 0 0 Z " fill="#7B869D" transform="translate(156,186)"/>
<path d="M0 0 C-1.28627711 1.17260611 -2.57919783 2.3379283 -3.875 3.5 C-4.59429687 4.1496875 -5.31359375 4.799375 -6.0546875 5.46875 C-8 7 -8 7 -10 7 C-9.42655063 4.13275314 -9.1385485 3.1385485 -7 1 C-2.38461538 -1.19230769 -2.38461538 -1.19230769 0 0 Z " fill="#434F71" transform="translate(281,187)"/>
<path d="M0 0 C0.99 0.33 1.98 0.66 3 1 C3.33 2.98 3.66 4.96 4 7 C2.54257537 7.08096803 1.08387193 7.13917774 -0.375 7.1875 C-1.18710938 7.22230469 -1.99921875 7.25710937 -2.8359375 7.29296875 C-3.55007812 7.19628906 -4.26421875 7.09960938 -5 7 C-5.66 6.01 -6.32 5.02 -7 4 C-4.03 4.33 -1.06 4.66 2 5 C2 4.01 2 3.02 2 2 C1.34 2 0.68 2 0 2 C0 1.34 0 0.68 0 0 Z " fill="#3F4F74" transform="translate(165,133)"/>
<path d="M0 0 C3.71888239 0.50712033 6.73454239 1.11608215 10 3 C10 3.99 10 4.98 10 6 C6.33118845 5.29445932 3.29549466 3.72264494 0 2 C0 1.34 0 0.68 0 0 Z " fill="#465477" transform="translate(57,204)"/>
<path d="M0 0 C0.33 0.99 0.66 1.98 1 3 C3.64 3 6.28 3 9 3 C9 3.66 9 4.32 9 5 C5.37 5 1.74 5 -2 5 C-1 1 -1 1 0 0 Z " fill="#252F58" transform="translate(155,155)"/>
<path d="M0 0 C0.99 0 1.98 0 3 0 C2.67 2.31 2.34 4.62 2 7 C0.35 7 -1.3 7 -3 7 C-3 6.34 -3 5.68 -3 5 C-2.34 5 -1.68 5 -1 5 C-0.67 3.35 -0.34 1.7 0 0 Z " fill="#78859B" transform="translate(202,195)"/>
<path d="M0 0 C0.33 1.32 0.66 2.64 1 4 C-1.64 4 -4.28 4 -7 4 C-7 3.01 -7 2.02 -7 1 C-3.535 0.505 -3.535 0.505 0 0 Z " fill="#F8FAFB" transform="translate(179,153)"/>
<path d="M0 0 C0.66 0 1.32 0 2 0 C2 3.3 2 6.6 2 10 C1.34 10 0.68 10 0 10 C-0.19412181 8.52168779 -0.38012131 7.04230684 -0.5625 5.5625 C-0.66691406 4.73878906 -0.77132812 3.91507813 -0.87890625 3.06640625 C-0.91886719 2.38449219 -0.95882812 1.70257813 -1 1 C-0.67 0.67 -0.34 0.34 0 0 Z " fill="#556583" transform="translate(234,127)"/>
<path d="M0 0 C1.98 0 3.96 0 6 0 C5.34 1.98 4.68 3.96 4 6 C3.34 6 2.68 6 2 6 C2 5.01 2 4.02 2 3 C1.01 3 0.02 3 -1 3 C-0.67 2.01 -0.34 1.02 0 0 Z " fill="#75839A" transform="translate(185,196)"/>
<path d="M0 0 C4.95 0.99 4.95 0.99 10 2 C10 2.66 10 3.32 10 4 C6.7 4 3.4 4 0 4 C0 2.68 0 1.36 0 0 Z " fill="#011A4D" transform="translate(115,60)"/>
<path d="M0 0 C0.66 0 1.32 0 2 0 C2 0.66 2 1.32 2 2 C2.99 2 3.98 2 5 2 C5 2.66 5 3.32 5 4 C2 6 2 6 -0.6875 5.625 C-1.450625 5.41875 -2.21375 5.2125 -3 5 C-2.34 4.67 -1.68 4.34 -1 4 C-0.34786708 1.97536745 -0.34786708 1.97536745 0 0 Z " fill="#C5CDD7" transform="translate(229,197)"/>
<path d="M0 0 C2.31 0 4.62 0 7 0 C7 0.66 7 1.32 7 2 C5.35 2 3.7 2 2 2 C1.67 3.32 1.34 4.64 1 6 C0.34 6 -0.32 6 -1 6 C-0.67 4.02 -0.34 2.04 0 0 Z " fill="#747F96" transform="translate(245,195)"/>
<path d="M0 0 C0.33 0 0.66 0 1 0 C0.67 2.97 0.34 5.94 0 9 C-0.99 9 -1.98 9 -3 9 C-3 6.36 -3 3.72 -3 1 C-2.67 1.99 -2.34 2.98 -2 4 C-1.34 4 -0.68 4 0 4 C0 2.68 0 1.36 0 0 Z " fill="#7F8BA0" transform="translate(152,192)"/>
<path d="M0 0 C3.09411467 1.54705733 3.71558965 3.88071772 5 7 C4.6875 9.375 4.6875 9.375 4 11 C3.67 10.01 3.34 9.02 3 8 C2.34 8.66 1.68 9.32 1 10 C0.22157062 6.59437148 -0.09978121 3.49234244 0 0 Z " fill="#6A7792" transform="translate(302,101)"/>
<path d="M0 0 C0.66 0.99 1.32 1.98 2 3 C-0.31 4.98 -2.62 6.96 -5 9 C-5 4.61031544 -2.87194899 3.23094261 0 0 Z " fill="#4A5C7F" transform="translate(70,73)"/>
<path d="M0 0 C0 0.66 0 1.32 0 2 C0.9590625 2.1546875 0.9590625 2.1546875 1.9375 2.3125 C2.618125 2.539375 3.29875 2.76625 4 3 C4.33 3.99 4.66 4.98 5 6 C1.37 5.01 -2.26 4.02 -6 3 C-2 0 -2 0 0 0 Z " fill="#606E8B" transform="translate(133,64)"/>
<path d="M0 0 C0.66 0 1.32 0 2 0 C2 1.98 2 3.96 2 6 C-0.97 5.67 -3.94 5.34 -7 5 C-7 4.67 -7 4.34 -7 4 C-5.02 3.67 -3.04 3.34 -1 3 C-0.67 2.01 -0.34 1.02 0 0 Z " fill="#2F3C64" transform="translate(207,154)"/>
<path d="M0 0 C0.66 0.99 1.32 1.98 2 3 C-0.93828597 5.50298434 -3.17902761 6.46930939 -7 7 C-4.66666667 4.66666667 -2.33333333 2.33333333 0 0 Z " fill="#545F7F" transform="translate(283,181)"/>
<path d="M0 0 C1.6415049 3.2830098 0.51888624 6.42545033 0 10 C-0.66 10 -1.32 10 -2 10 C-2 9.01 -2 8.02 -2 7 C-2.99 7.495 -2.99 7.495 -4 8 C-2.87548273 5.0280615 -1.77706209 2.66559313 0 0 Z " fill="#78849E" transform="translate(299,160)"/>
<path d="M0 0 C0.66 0 1.32 0 2 0 C1.01 2.97 0.02 5.94 -1 9 C-1.66 9 -2.32 9 -3 9 C-2.5020163 5.26512223 -2.12508244 3.18762365 0 0 Z " fill="#3C486E" transform="translate(302,156)"/>
<path d="M0 0 C0.66 0.33 1.32 0.66 2 1 C4.09821215 0.60061233 4.09821215 0.60061233 6 0 C1.25 4.875 1.25 4.875 -1 6 C-1.66 5.34 -2.32 4.68 -3 4 C-2.01 2.68 -1.02 1.36 0 0 Z " fill="#727C97" transform="translate(22,81)"/>
<path d="M0 0 C-4.39453125 4.00390625 -4.39453125 4.00390625 -6 5 C-6.99 4.67 -7.98 4.34 -9 4 C-6.56225426 0.2214941 -6.56225426 0.2214941 -3.9375 -0.8125 C-2 -1 -2 -1 0 0 Z " fill="#394568" transform="translate(46,66)"/>
<path d="M0 0 C2.64 0.33 5.28 0.66 8 1 C8.33 1.99 8.66 2.98 9 4 C4.545 3.01 4.545 3.01 0 2 C0 1.34 0 0.68 0 0 Z " fill="#313F66" transform="translate(227,47)"/>
<path d="M0 0 C0 0.66 0 1.32 0 2 C-7.42857143 4.42857143 -7.42857143 4.42857143 -11 3 C-4.5 0 -4.5 0 0 0 Z " fill="#2E3E65" transform="translate(84,47)"/>
<path d="M0 0 C0.66 0 1.32 0 2 0 C1.34 2.97 0.68 5.94 0 9 C-0.66 8.67 -1.32 8.34 -2 8 C-2.125 5.125 -2.125 5.125 -2 2 C-1.34 1.34 -0.68 0.68 0 0 Z " fill="#727F95" transform="translate(213,192)"/>
<path d="M0 0 C1.15941038 3.47823115 0.70820884 5.45895578 0 9 C-0.66 9 -1.32 9 -2 9 C-2.125 5.625 -2.125 5.625 -2 2 C-1.34 1.34 -0.68 0.68 0 0 Z " fill="#738095" transform="translate(146,192)"/>
<path d="M0 0 C1.42944945 2.35438733 2.08661261 3.48032433 1.625 6.25 C1.41875 6.8275 1.2125 7.405 1 8 C0.01 8 -0.98 8 -2 8 C-1.125 2.25 -1.125 2.25 0 0 Z " fill="#364369" transform="translate(214,152)"/>
<path d="M0 0 C0.99 0.495 0.99 0.495 2 1 C2.59355614 3.64860427 2.74209269 6.29197322 3 9 C1.5 7.875 1.5 7.875 0 6 C-0.1875 2.8125 -0.1875 2.8125 0 0 Z " fill="#304066" transform="translate(304,108)"/>
<path d="M0 0 C0.66 0.33 1.32 0.66 2 1 C0.8125 3.5 0.8125 3.5 -1 6 C-3.6875 6.3125 -3.6875 6.3125 -6 6 C-4 4 -2 2 0 0 Z " fill="#586684" transform="translate(37,68)"/>
<path d="M0 0 C0 0.66 0 1.32 0 2 C-4.455 2.495 -4.455 2.495 -9 3 C-6.01800145 0.01800145 -4.21244839 0 0 0 Z " fill="#304165" transform="translate(222,216)"/>
<path d="M0 0 C-4.43076923 3.07692308 -4.43076923 3.07692308 -7.3125 2.6875 C-8.1478125 2.3471875 -8.1478125 2.3471875 -9 2 C-8.34 2 -7.68 2 -7 2 C-7 1.34 -7 0.68 -7 0 C-3.98968256 -0.93423645 -3.13349732 -1.04449911 0 0 Z " fill="#2D3C63" transform="translate(254,205)"/>
<path d="M0 0 C1.5625 1.25 1.5625 1.25 3 3 C2.6875 5.1875 2.6875 5.1875 2 7 C2.99 7.33 3.98 7.66 5 8 C3.35 8 1.7 8 0 8 C0 5.36 0 2.72 0 0 Z " fill="#A3ADBC" transform="translate(218,193)"/>
<path d="M0 0 C0.99 0.33 1.98 0.66 3 1 C3.33 3.31 3.66 5.62 4 8 C1.10067643 5.60490662 0.49831724 3.68754757 0 0 Z " fill="#2F3E63" transform="translate(299,98)"/>
<path d="M0 0 C2.86724686 0.57344937 3.8614515 0.8614515 6 3 C5.67 3.99 5.34 4.98 5 6 C3.2925002 4.71937515 1.62626404 3.38232443 0 2 C0 1.34 0 0.68 0 0 Z " fill="#333F66" transform="translate(276,73)"/>
<path d="M0 0 C3.68754757 0.49831724 5.60490662 1.10067643 8 4 C5.6875 4.25 5.6875 4.25 3 4 C1.1875 2 1.1875 2 0 0 Z " fill="#344367" transform="translate(245,54)"/>
</svg>
